<?xml version="1.0" encoding="utf-8" standalone="no"?>
<!DOCTYPE svg PUBLIC "-//W3C//DTD SVG 1.1//EN"
  "http://www.w3.org/Graphics/SVG/1.1/DTD/svg11.dtd">
<svg xmlns:xlink="http://www.w3.org/1999/xlink" width="432pt" height="432pt" viewBox="0 0 432 432" xmlns="http://www.w3.org/2000/svg" version="1.1">
 <metadata>
  <rdf:RDF xmlns:dc="http://purl.org/dc/elements/1.1/" xmlns:cc="http://creativecommons.org/ns#" xmlns:rdf="http://www.w3.org/1999/02/22-rdf-syntax-ns#">
   <cc:Work>
    <dc:type rdf:resource="http://purl.org/dc/dcmitype/StillImage"/>
    <dc:date>2026-05-25T22:31:19.162044</dc:date>
    <dc:format>image/svg+xml</dc:format>
    <dc:creator>
     <cc:Agent>
      <dc:title>Matplotlib v3.10.0, https://matplotlib.org/</dc:title>
     </cc:Agent>
    </dc:creator>
   </cc:Work>
  </rdf:RDF>
 </metadata>
 <defs>
  <style type="text/css">*{stroke-linejoin: round; stroke-linecap: butt}</style>
 </defs>
 <g id="figure_1">
  <g id="patch_1">
   <path d="M 0 432 
L 432 432 
L 432 0 
L 0 0 
z
" style="fill: #ffffff"/>
  </g>
  <g id="axes_1">
   <g id="patch_2">
    <path d="M 31.04 407.62 
L 420.676875 407.62 
L 420.676875 25.44 
L 31.04 25.44 
z
" style="fill: #eaeaf2"/>
   </g>
   <g id="matplotlib.axis_1">
    <g id="xtick_1">
     <g id="line2d_1">
      <path d="M 31.04 407.62 
L 31.04 25.44 
" clip-path="url(#p535b1dbd2e)" style="fill: none; stroke: #ffffff; stroke-width: 0.8; stroke-linecap: round"/>
     </g>
     <g id="line2d_2"/>
     <g id="text_1">
      <!-- 0 -->
      <g style="fill: #262626" transform="translate(28.259531 418.366875) scale(0.1 -0.1)">
       <defs>
        <path id="LiberationSans-30" d="M 3309 2203 
Q 3309 1100 2920 518 
Q 2531 -63 1772 -63 
Q 1013 -63 631 515 
Q 250 1094 250 2203 
Q 250 3338 620 3903 
Q 991 4469 1791 4469 
Q 2569 4469 2939 3897 
Q 3309 3325 3309 2203 
z
M 2738 2203 
Q 2738 3156 2517 3584 
Q 2297 4013 1791 4013 
Q 1272 4013 1045 3591 
Q 819 3169 819 2203 
Q 819 1266 1048 831 
Q 1278 397 1778 397 
Q 2275 397 2506 840 
Q 2738 1284 2738 2203 
z
" transform="scale(0.015625)"/>
       </defs>
       <use xlink:href="#LiberationSans-30"/>
      </g>
     </g>
    </g>
    <g id="xtick_2">
     <g id="line2d_3">
      <path d="M 107.140952 407.62 
L 107.140952 25.44 
" clip-path="url(#p535b1dbd2e)" style="fill: none; stroke: #ffffff; stroke-width: 0.8; stroke-linecap: round"/>
     </g>
     <g id="line2d_4"/>
     <g id="text_2">
      <!-- 50 -->
      <g style="fill: #262626" transform="translate(101.580015 418.366875) scale(0.1 -0.1)">
       <defs>
        <path id="LiberationSans-35" d="M 3291 1434 
Q 3291 738 2877 337 
Q 2463 -63 1728 -63 
Q 1113 -63 734 206 
Q 356 475 256 984 
L 825 1050 
Q 1003 397 1741 397 
Q 2194 397 2450 670 
Q 2706 944 2706 1422 
Q 2706 1838 2448 2094 
Q 2191 2350 1753 2350 
Q 1525 2350 1328 2278 
Q 1131 2206 934 2034 
L 384 2034 
L 531 4403 
L 3034 4403 
L 3034 3925 
L 1044 3925 
L 959 2528 
Q 1325 2809 1869 2809 
Q 2519 2809 2905 2428 
Q 3291 2047 3291 1434 
z
" transform="scale(0.015625)"/>
       </defs>
       <use xlink:href="#LiberationSans-35"/>
       <use xlink:href="#LiberationSans-30" transform="translate(55.615234 0)"/>
      </g>
     </g>
    </g>
    <g id="xtick_3">
     <g id="line2d_5">
      <path d="M 183.241904 407.62 
L 183.241904 25.44 
" clip-path="url(#p535b1dbd2e)" style="fill: none; stroke: #ffffff; stroke-width: 0.8; stroke-linecap: round"/>
     </g>
     <g id="line2d_6"/>
     <g id="text_3">
      <!-- 100 -->
      <g style="fill: #262626" transform="translate(174.900498 418.366875) scale(0.1 -0.1)">
       <defs>
        <path id="LiberationSans-31" d="M 488 0 
L 488 478 
L 1609 478 
L 1609 3866 
L 616 3156 
L 616 3688 
L 1656 4403 
L 2175 4403 
L 2175 478 
L 3247 478 
L 3247 0 
L 488 0 
z
" transform="scale(0.015625)"/>
       </defs>
       <use xlink:href="#LiberationSans-31"/>
       <use xlink:href="#LiberationSans-30" transform="translate(55.615234 0)"/>
       <use xlink:href="#LiberationSans-30" transform="translate(111.230469 0)"/>
      </g>
     </g>
    </g>
    <g id="xtick_4">
     <g id="line2d_7">
      <path d="M 259.342856 407.62 
L 259.342856 25.44 
" clip-path="url(#p535b1dbd2e)" style="fill: none; stroke: #ffffff; stroke-width: 0.8; stroke-linecap: round"/>
     </g>
     <g id="line2d_8"/>
     <g id="text_4">
      <!-- 150 -->
      <g style="fill: #262626" transform="translate(251.00145 418.366875) scale(0.1 -0.1)">
       <use xlink:href="#LiberationSans-31"/>
       <use xlink:href="#LiberationSans-35" transform="translate(55.615234 0)"/>
       <use xlink:href="#LiberationSans-30" transform="translate(111.230469 0)"/>
      </g>
     </g>
    </g>
    <g id="xtick_5">
     <g id="line2d_9">
      <path d="M 335.443809 407.62 
L 335.443809 25.44 
" clip-path="url(#p535b1dbd2e)" style="fill: none; stroke: #ffffff; stroke-width: 0.8; stroke-linecap: round"/>
     </g>
     <g id="line2d_10"/>
     <g id="text_5">
      <!-- 200 -->
      <g style="fill: #262626" transform="translate(327.102402 418.366875) scale(0.1 -0.1)">
       <defs>
        <path id="LiberationSans-32" d="M 322 0 
L 322 397 
Q 481 763 711 1042 
Q 941 1322 1194 1548 
Q 1447 1775 1695 1969 
Q 1944 2163 2144 2356 
Q 2344 2550 2467 2762 
Q 2591 2975 2591 3244 
Q 2591 3606 2378 3806 
Q 2166 4006 1788 4006 
Q 1428 4006 1195 3811 
Q 963 3616 922 3263 
L 347 3316 
Q 409 3844 795 4156 
Q 1181 4469 1788 4469 
Q 2453 4469 2811 4155 
Q 3169 3841 3169 3263 
Q 3169 3006 3051 2753 
Q 2934 2500 2703 2247 
Q 2472 1994 1819 1463 
Q 1459 1169 1246 933 
Q 1034 697 941 478 
L 3238 478 
L 3238 0 
L 322 0 
z
" transform="scale(0.015625)"/>
       </defs>
       <use xlink:href="#LiberationSans-32"/>
       <use xlink:href="#LiberationSans-30" transform="translate(55.615234 0)"/>
       <use xlink:href="#LiberationSans-30" transform="translate(111.230469 0)"/>
      </g>
     </g>
    </g>
    <g id="xtick_6">
     <g id="line2d_11">
      <path d="M 411.544761 407.62 
L 411.544761 25.44 
" clip-path="url(#p535b1dbd2e)" style="fill: none; stroke: #ffffff; stroke-width: 0.8; stroke-linecap: round"/>
     </g>
     <g id="line2d_12"/>
     <g id="text_6">
      <!-- 250 -->
      <g style="fill: #262626" transform="translate(403.203354 418.366875) scale(0.1 -0.1)">
       <use xlink:href="#LiberationSans-32"/>
       <use xlink:href="#LiberationSans-35" transform="translate(55.615234 0)"/>
       <use xlink:href="#LiberationSans-30" transform="translate(111.230469 0)"/>
      </g>
     </g>
    </g>
   </g>
   <g id="matplotlib.axis_2">
    <g id="ytick_1">
     <g id="line2d_13">
      <path d="M 31.04 25.44 
L 420.676875 25.44 
" clip-path="url(#p535b1dbd2e)" style="fill: none; stroke: #ffffff; stroke-width: 0.8; stroke-linecap: round"/>
     </g>
     <g id="line2d_14"/>
     <g id="text_7">
      <!-- 0 -->
      <g style="fill: #262626" transform="translate(21.979063 29.063438) scale(0.1 -0.1)">
       <use xlink:href="#LiberationSans-30"/>
      </g>
     </g>
    </g>
    <g id="ytick_2">
     <g id="line2d_15">
      <path d="M 31.04 100.084531 
L 420.676875 100.084531 
" clip-path="url(#p535b1dbd2e)" style="fill: none; stroke: #ffffff; stroke-width: 0.8; stroke-linecap: round"/>
     </g>
     <g id="line2d_16"/>
     <g id="text_8">
      <!-- 50 -->
      <g style="fill: #262626" transform="translate(16.418125 103.707969) scale(0.1 -0.1)">
       <use xlink:href="#LiberationSans-35"/>
       <use xlink:href="#LiberationSans-30" transform="translate(55.615234 0)"/>
      </g>
     </g>
    </g>
    <g id="ytick_3">
     <g id="line2d_17">
      <path d="M 31.04 174.729062 
L 420.676875 174.729062 
" clip-path="url(#p535b1dbd2e)" style="fill: none; stroke: #ffffff; stroke-width: 0.8; stroke-linecap: round"/>
     </g>
     <g id="line2d_18"/>
     <g id="text_9">
      <!-- 100 -->
      <g style="fill: #262626" transform="translate(10.857188 178.3525) scale(0.1 -0.1)">
       <use xlink:href="#LiberationSans-31"/>
       <use xlink:href="#LiberationSans-30" transform="translate(55.615234 0)"/>
       <use xlink:href="#LiberationSans-30" transform="translate(111.230469 0)"/>
      </g>
     </g>
    </g>
    <g id="ytick_4">
     <g id="line2d_19">
      <path d="M 31.04 249.373594 
L 420.676875 249.373594 
" clip-path="url(#p535b1dbd2e)" style="fill: none; stroke: #ffffff; stroke-width: 0.8; stroke-linecap: round"/>
     </g>
     <g id="line2d_20"/>
     <g id="text_10">
      <!-- 150 -->
      <g style="fill: #262626" transform="translate(10.857188 252.997031) scale(0.1 -0.1)">
       <use xlink:href="#LiberationSans-31"/>
       <use xlink:href="#LiberationSans-35" transform="translate(55.615234 0)"/>
       <use xlink:href="#LiberationSans-30" transform="translate(111.230469 0)"/>
      </g>
     </g>
    </g>
    <g id="ytick_5">
     <g id="line2d_21">
      <path d="M 31.04 324.018125 
L 420.676875 324.018125 
" clip-path="url(#p535b1dbd2e)" style="fill: none; stroke: #ffffff; stroke-width: 0.8; stroke-linecap: round"/>
     </g>
     <g id="line2d_22"/>
     <g id="text_11">
      <!-- 200 -->
      <g style="fill: #262626" transform="translate(10.857188 327.641562) scale(0.1 -0.1)">
       <use xlink:href="#LiberationSans-32"/>
       <use xlink:href="#LiberationSans-30" transform="translate(55.615234 0)"/>
       <use xlink:href="#LiberationSans-30" transform="translate(111.230469 0)"/>
      </g>
     </g>
    </g>
    <g id="ytick_6">
     <g id="line2d_23">
      <path d="M 31.04 398.662656 
L 420.676875 398.662656 
" clip-path="url(#p535b1dbd2e)" style="fill: none; stroke: #ffffff; stroke-width: 0.8; stroke-linecap: round"/>
     </g>
     <g id="line2d_24"/>
     <g id="text_12">
      <!-- 250 -->
      <g style="fill: #262626" transform="translate(10.857188 402.286094) scale(0.1 -0.1)">
       <use xlink:href="#LiberationSans-32"/>
       <use xlink:href="#LiberationSans-35" transform="translate(55.615234 0)"/>
       <use xlink:href="#LiberationSans-30" transform="translate(111.230469 0)"/>
      </g>
     </g>
    </g>
   </g>
   <g id="patch_3">
    <path d="M 108.662971 82.169844 
L 338.487847 82.169844 
L 338.487847 365.819062 
L 108.662971 365.819062 
z
" clip-path="url(#p535b1dbd2e)" style="fill: #8c564b; fill-opacity: 0.05; stroke: #8c564b; stroke-linejoin: miter"/>
   </g>
   <g id="patch_4">
    <path d="M 98.008838 83.662734 
L 350.663999 83.662734 
L 350.663999 368.804844 
L 98.008838 368.804844 
z
" clip-path="url(#p535b1dbd2e)" style="fill: #f7b6d2; fill-opacity: 0.05; stroke: #f7b6d2; stroke-linejoin: miter"/>
   </g>
   <g id="patch_5">
    <path d="M 91.920762 89.634297 
L 358.274094 89.634297 
L 358.274094 358.354609 
L 91.920762 358.354609 
z
" clip-path="url(#p535b1dbd2e)" style="fill: #bcbd22; fill-opacity: 0.05; stroke: #bcbd22; stroke-linejoin: miter"/>
   </g>
   <g id="patch_6">
    <path d="M 99.530857 82.169844 
L 349.14198 82.169844 
L 349.14198 362.833281 
L 99.530857 362.833281 
z
" clip-path="url(#p535b1dbd2e)" style="fill: #7f7f7f; fill-opacity: 0.05; stroke: #7f7f7f; stroke-linejoin: miter"/>
   </g>
   <g id="patch_7">
    <path d="M 99.530857 88.141406 
L 350.663999 88.141406 
L 350.663999 358.354609 
L 99.530857 358.354609 
z
" clip-path="url(#p535b1dbd2e)" style="fill: #17becf; fill-opacity: 0.05; stroke: #17becf; stroke-linejoin: miter"/>
   </g>
   <g id="patch_8">
    <path d="M 101.052876 85.155625 
L 350.663999 85.155625 
L 350.663999 371.790625 
L 101.052876 371.790625 
z
" clip-path="url(#p535b1dbd2e)" style="fill: #e377c2; fill-opacity: 0.05; stroke: #e377c2; stroke-linejoin: miter"/>
   </g>
   <g id="patch_9">
    <path d="M 94.9648 91.127187 
L 353.708037 91.127187 
L 353.708037 355.368828 
L 94.9648 355.368828 
z
" clip-path="url(#p535b1dbd2e)" style="fill: #9edae5; fill-opacity: 0.05; stroke: #9edae5; stroke-linejoin: miter"/>
   </g>
   <g id="patch_10">
    <path d="M 107.140952 74.705391 
L 341.531885 74.705391 
L 341.531885 367.311953 
L 107.140952 367.311953 
z
" clip-path="url(#p535b1dbd2e)" style="fill: #c5b0d5; fill-opacity: 0.05; stroke: #c5b0d5; stroke-linejoin: miter"/>
   </g>
   <g id="patch_11">
    <path d="M 99.530857 82.169844 
L 346.097942 82.169844 
L 346.097942 359.8475 
L 99.530857 359.8475 
z
" clip-path="url(#p535b1dbd2e)" style="fill: #e377c2; fill-opacity: 0.05; stroke: #e377c2; stroke-linejoin: miter"/>
   </g>
   <g id="patch_12">
    <path d="M 108.662971 82.169844 
L 344.575923 82.169844 
L 344.575923 370.297734 
L 108.662971 370.297734 
z
" clip-path="url(#p535b1dbd2e)" style="fill: #c7c7c7; fill-opacity: 0.05; stroke: #c7c7c7; stroke-linejoin: miter"/>
   </g>
   <g id="patch_13">
    <path d="M 104.096914 77.691172 
L 344.575923 77.691172 
L 344.575923 361.340391 
L 104.096914 361.340391 
z
" clip-path="url(#p535b1dbd2e)" style="fill: #17becf; fill-opacity: 0.05; stroke: #17becf; stroke-linejoin: miter"/>
   </g>
   <g id="patch_14">
    <path d="M 104.096914 77.691172 
L 343.053904 77.691172 
L 343.053904 376.269297 
L 104.096914 376.269297 
z
" clip-path="url(#p535b1dbd2e)" style="fill: #9467bd; fill-opacity: 0.05; stroke: #9467bd; stroke-linejoin: miter"/>
   </g>
   <g id="patch_15">
    <path d="M 105.618933 80.676953 
L 344.575923 80.676953 
L 344.575923 371.790625 
L 105.618933 371.790625 
z
" clip-path="url(#p535b1dbd2e)" style="fill: #2ca02c; fill-opacity: 0.05; stroke: #2ca02c; stroke-linejoin: miter"/>
   </g>
   <g id="patch_16">
    <path d="M 105.618933 77.691172 
L 343.053904 77.691172 
L 343.053904 367.311953 
L 105.618933 367.311953 
z
" clip-path="url(#p535b1dbd2e)" style="fill: #ffbb78; fill-opacity: 0.05; stroke: #ffbb78; stroke-linejoin: miter"/>
   </g>
   <g id="patch_17">
    <path d="M 110.18499 74.705391 
L 340.009866 74.705391 
L 340.009866 368.804844 
L 110.18499 368.804844 
z
" clip-path="url(#p535b1dbd2e)" style="fill: #98df8a; fill-opacity: 0.05; stroke: #98df8a; stroke-linejoin: miter"/>
   </g>
   <g id="patch_18">
    <path d="M 93.442781 89.634297 
L 358.274094 89.634297 
L 358.274094 365.819063 
L 93.442781 365.819063 
z
" clip-path="url(#p535b1dbd2e)" style="fill: #98df8a; fill-opacity: 0.05; stroke: #98df8a; stroke-linejoin: miter"/>
   </g>
   <g id="patch_19">
    <path d="M 98.008838 83.662734 
L 350.663999 83.662734 
L 350.663999 361.340391 
L 98.008838 361.340391 
z
" clip-path="url(#p535b1dbd2e)" style="fill: #bcbd22; fill-opacity: 0.05; stroke: #bcbd22; stroke-linejoin: miter"/>
   </g>
   <g id="patch_20">
    <path d="M 105.618933 77.691172 
L 346.097942 77.691172 
L 346.097942 373.283516 
L 105.618933 373.283516 
z
" clip-path="url(#p535b1dbd2e)" style="fill: #9edae5; fill-opacity: 0.05; stroke: #9edae5; stroke-linejoin: miter"/>
   </g>
   <g id="patch_21">
    <path d="M 93.442781 86.648516 
L 353.708037 86.648516 
L 353.708037 368.804844 
L 93.442781 368.804844 
z
" clip-path="url(#p535b1dbd2e)" style="fill: #e377c2; fill-opacity: 0.05; stroke: #e377c2; stroke-linejoin: miter"/>
   </g>
   <g id="patch_22">
    <path d="M 101.052876 85.155625 
L 347.619961 85.155625 
L 347.619961 359.8475 
L 101.052876 359.8475 
z
" clip-path="url(#p535b1dbd2e)" style="fill: #9467bd; fill-opacity: 0.05; stroke: #9467bd; stroke-linejoin: miter"/>
   </g>
   <g id="patch_23">
    <path d="M 102.574895 80.676953 
L 349.14198 80.676953 
L 349.14198 373.283516 
L 102.574895 373.283516 
z
" clip-path="url(#p535b1dbd2e)" style="fill: #d62728; fill-opacity: 0.05; stroke: #d62728; stroke-linejoin: miter"/>
   </g>
   <g id="patch_24">
    <path d="M 93.442781 88.141406 
L 358.274094 88.141406 
L 358.274094 364.326172 
L 93.442781 364.326172 
z
" clip-path="url(#p535b1dbd2e)" style="fill: #1f77b4; fill-opacity: 0.05; stroke: #1f77b4; stroke-linejoin: miter"/>
   </g>
   <g id="patch_25">
    <path d="M 102.574895 79.184062 
L 344.575923 79.184062 
L 344.575923 371.790625 
L 102.574895 371.790625 
z
" clip-path="url(#p535b1dbd2e)" style="fill: #9467bd; fill-opacity: 0.05; stroke: #9467bd; stroke-linejoin: miter"/>
   </g>
   <g id="patch_26">
    <path d="M 107.140952 74.705391 
L 341.531885 74.705391 
L 341.531885 383.73375 
L 107.140952 383.73375 
z
" clip-path="url(#p535b1dbd2e)" style="fill: #d62728; fill-opacity: 0.05; stroke: #d62728; stroke-linejoin: miter"/>
   </g>
   <g id="patch_27">
    <path d="M 102.574895 79.184062 
L 344.575923 79.184062 
L 344.575923 374.776406 
L 102.574895 374.776406 
z
" clip-path="url(#p535b1dbd2e)" style="fill: #ff7f0e; fill-opacity: 0.05; stroke: #ff7f0e; stroke-linejoin: miter"/>
   </g>
   <g id="patch_28">
    <path d="M 102.574895 76.198281 
L 344.575923 76.198281 
L 344.575923 368.804844 
L 102.574895 368.804844 
z
" clip-path="url(#p535b1dbd2e)" style="fill: #1f77b4; fill-opacity: 0.05; stroke: #1f77b4; stroke-linejoin: miter"/>
   </g>
   <g id="patch_29">
    <path d="M 94.9648 88.141406 
L 361.318132 88.141406 
L 361.318132 368.804844 
L 94.9648 368.804844 
z
" clip-path="url(#p535b1dbd2e)" style="fill: #ffbb78; fill-opacity: 0.05; stroke: #ffbb78; stroke-linejoin: miter"/>
   </g>
   <g id="patch_30">
    <path d="M 105.618933 77.691172 
L 343.053904 77.691172 
L 343.053904 362.833281 
L 105.618933 362.833281 
z
" clip-path="url(#p535b1dbd2e)" style="fill: #98df8a; fill-opacity: 0.05; stroke: #98df8a; stroke-linejoin: miter"/>
   </g>
   <g id="patch_31">
    <path d="M 93.442781 86.648516 
L 353.708037 86.648516 
L 353.708037 358.354609 
L 93.442781 358.354609 
z
" clip-path="url(#p535b1dbd2e)" style="fill: #c7c7c7; fill-opacity: 0.05; stroke: #c7c7c7; stroke-linejoin: miter"/>
   </g>
   <g id="patch_32">
    <path d="M 105.618933 77.691172 
L 343.053904 77.691172 
L 343.053904 370.297734 
L 105.618933 370.297734 
z
" clip-path="url(#p535b1dbd2e)" style="fill: #c49c94; fill-opacity: 0.05; stroke: #c49c94; stroke-linejoin: miter"/>
   </g>
   <g id="patch_33">
    <path d="M 93.442781 88.141406 
L 361.318132 88.141406 
L 361.318132 361.340391 
L 93.442781 361.340391 
z
" clip-path="url(#p535b1dbd2e)" style="fill: #ff9896; fill-opacity: 0.05; stroke: #ff9896; stroke-linejoin: miter"/>
   </g>
   <g id="patch_34">
    <path d="M 105.618933 74.705391 
L 343.053904 74.705391 
L 343.053904 365.819063 
L 105.618933 365.819063 
z
" clip-path="url(#p535b1dbd2e)" style="fill: #aec7e8; fill-opacity: 0.05; stroke: #aec7e8; stroke-linejoin: miter"/>
   </g>
   <g id="patch_35">
    <path d="M 104.096914 77.691172 
L 343.053904 77.691172 
L 343.053904 371.790625 
L 104.096914 371.790625 
z
" clip-path="url(#p535b1dbd2e)" style="fill: #8c564b; fill-opacity: 0.05; stroke: #8c564b; stroke-linejoin: miter"/>
   </g>
   <g id="patch_36">
    <path d="M 107.140952 79.184062 
L 346.097942 79.184062 
L 346.097942 379.255078 
L 107.140952 379.255078 
z
" clip-path="url(#p535b1dbd2e)" style="fill: #9edae5; fill-opacity: 0.05; stroke: #9edae5; stroke-linejoin: miter"/>
   </g>
   <g id="patch_37">
    <path d="M 99.530857 79.184062 
L 349.14198 79.184062 
L 349.14198 358.354609 
L 99.530857 358.354609 
z
" clip-path="url(#p535b1dbd2e)" style="fill: #ffbb78; fill-opacity: 0.05; stroke: #ffbb78; stroke-linejoin: miter"/>
   </g>
   <g id="patch_38">
    <path d="M 96.486819 85.155625 
L 353.708037 85.155625 
L 353.708037 358.354609 
L 96.486819 358.354609 
z
" clip-path="url(#p535b1dbd2e)" style="fill: #17becf; fill-opacity: 0.05; stroke: #17becf; stroke-linejoin: miter"/>
   </g>
   <g id="patch_39">
    <path d="M 102.574895 74.705391 
L 341.531885 74.705391 
L 341.531885 367.311953 
L 102.574895 367.311953 
z
" clip-path="url(#p535b1dbd2e)" style="fill: #aec7e8; fill-opacity: 0.05; stroke: #aec7e8; stroke-linejoin: miter"/>
   </g>
   <g id="patch_40">
    <path d="M 101.052876 79.184062 
L 355.230056 79.184062 
L 355.230056 379.255078 
L 101.052876 379.255078 
z
" clip-path="url(#p535b1dbd2e)" style="fill: #98df8a; fill-opacity: 0.05; stroke: #98df8a; stroke-linejoin: miter"/>
   </g>
   <g id="patch_41">
    <path d="M 99.530857 80.676953 
L 349.14198 80.676953 
L 349.14198 367.311953 
L 99.530857 367.311953 
z
" clip-path="url(#p535b1dbd2e)" style="fill: #ffbb78; fill-opacity: 0.05; stroke: #ffbb78; stroke-linejoin: miter"/>
   </g>
   <g id="patch_42">
    <path d="M 105.618933 82.169844 
L 344.575923 82.169844 
L 344.575923 374.776406 
L 105.618933 374.776406 
z
" clip-path="url(#p535b1dbd2e)" style="fill: #ff7f0e; fill-opacity: 0.05; stroke: #ff7f0e; stroke-linejoin: miter"/>
   </g>
   <g id="patch_43">
    <path d="M 99.530857 82.169844 
L 347.619961 82.169844 
L 347.619961 362.833281 
L 99.530857 362.833281 
z
" clip-path="url(#p535b1dbd2e)" style="fill: #8c564b; fill-opacity: 0.05; stroke: #8c564b; stroke-linejoin: miter"/>
   </g>
   <g id="patch_44">
    <path d="M 94.9648 82.169844 
L 352.186018 82.169844 
L 352.186018 362.833281 
L 94.9648 362.833281 
z
" clip-path="url(#p535b1dbd2e)" style="fill: #7f7f7f; fill-opacity: 0.05; stroke: #7f7f7f; stroke-linejoin: miter"/>
   </g>
   <g id="patch_45">
    <path d="M 107.140952 77.691172 
L 346.097942 77.691172 
L 346.097942 371.790625 
L 107.140952 371.790625 
z
" clip-path="url(#p535b1dbd2e)" style="fill: #ff9896; fill-opacity: 0.05; stroke: #ff9896; stroke-linejoin: miter"/>
   </g>
   <g id="patch_46">
    <path d="M 79.744609 94.112969 
L 370.450247 94.112969 
L 370.450247 349.397266 
L 79.744609 349.397266 
z
" clip-path="url(#p535b1dbd2e)" style="fill: #dbdb8d; fill-opacity: 0.05; stroke: #dbdb8d; stroke-linejoin: miter"/>
   </g>
   <g id="patch_47">
    <path d="M 98.008838 83.662734 
L 352.186018 83.662734 
L 352.186018 367.311953 
L 98.008838 367.311953 
z
" clip-path="url(#p535b1dbd2e)" style="fill: #ff7f0e; fill-opacity: 0.05; stroke: #ff7f0e; stroke-linejoin: miter"/>
   </g>
   <g id="patch_48">
    <path d="M 101.052876 80.676953 
L 347.619961 80.676953 
L 347.619961 368.804844 
L 101.052876 368.804844 
z
" clip-path="url(#p535b1dbd2e)" style="fill: #2ca02c; fill-opacity: 0.05; stroke: #2ca02c; stroke-linejoin: miter"/>
   </g>
   <g id="patch_49">
    <path d="M 101.052876 82.169844 
L 347.619961 82.169844 
L 347.619961 365.819062 
L 101.052876 365.819062 
z
" clip-path="url(#p535b1dbd2e)" style="fill: #dbdb8d; fill-opacity: 0.05; stroke: #dbdb8d; stroke-linejoin: miter"/>
   </g>
   <g id="patch_50">
    <path d="M 98.008838 83.662734 
L 349.14198 83.662734 
L 349.14198 365.819063 
L 98.008838 365.819063 
z
" clip-path="url(#p535b1dbd2e)" style="fill: #ff7f0e; fill-opacity: 0.05; stroke: #ff7f0e; stroke-linejoin: miter"/>
   </g>
   <g id="patch_51">
    <path d="M 104.096914 80.676953 
L 347.619961 80.676953 
L 347.619961 358.354609 
L 104.096914 358.354609 
z
" clip-path="url(#p535b1dbd2e)" style="fill: #dbdb8d; fill-opacity: 0.05; stroke: #dbdb8d; stroke-linejoin: miter"/>
   </g>
   <g id="patch_52">
    <path d="M 108.662971 74.705391 
L 343.053904 74.705391 
L 343.053904 370.297734 
L 108.662971 370.297734 
z
" clip-path="url(#p535b1dbd2e)" style="fill: #ff9896; fill-opacity: 0.05; stroke: #ff9896; stroke-linejoin: miter"/>
   </g>
   <g id="patch_53">
    <path d="M 113.229028 74.705391 
L 338.487847 74.705391 
L 338.487847 368.804844 
L 113.229028 368.804844 
z
" clip-path="url(#p535b1dbd2e)" style="fill: #c7c7c7; fill-opacity: 0.05; stroke: #c7c7c7; stroke-linejoin: miter"/>
   </g>
   <g id="patch_54">
    <path d="M 101.052876 88.141406 
L 350.663999 88.141406 
L 350.663999 359.8475 
L 101.052876 359.8475 
z
" clip-path="url(#p535b1dbd2e)" style="fill: #c5b0d5; fill-opacity: 0.05; stroke: #c5b0d5; stroke-linejoin: miter"/>
   </g>
   <g id="patch_55">
    <path d="M 94.9648 86.648516 
L 350.663999 86.648516 
L 350.663999 353.875938 
L 94.9648 353.875938 
z
" clip-path="url(#p535b1dbd2e)" style="fill: #ff9896; fill-opacity: 0.05; stroke: #ff9896; stroke-linejoin: miter"/>
   </g>
   <g id="patch_56">
    <path d="M 104.096914 79.184062 
L 343.053904 79.184062 
L 343.053904 365.819062 
L 104.096914 365.819062 
z
" clip-path="url(#p535b1dbd2e)" style="fill: #d62728; fill-opacity: 0.05; stroke: #d62728; stroke-linejoin: miter"/>
   </g>
   <g id="patch_57">
    <path d="M 105.618933 79.184062 
L 344.575923 79.184062 
L 344.575923 374.776406 
L 105.618933 374.776406 
z
" clip-path="url(#p535b1dbd2e)" style="fill: #2ca02c; fill-opacity: 0.05; stroke: #2ca02c; stroke-linejoin: miter"/>
   </g>
   <g id="patch_58">
    <path d="M 108.662971 71.719609 
L 340.009866 71.719609 
L 340.009866 371.790625 
L 108.662971 371.790625 
z
" clip-path="url(#p535b1dbd2e)" style="fill: #2ca02c; fill-opacity: 0.05; stroke: #2ca02c; stroke-linejoin: miter"/>
   </g>
   <g id="patch_59">
    <path d="M 91.920762 89.634297 
L 356.752075 89.634297 
L 356.752075 352.383047 
L 91.920762 352.383047 
z
" clip-path="url(#p535b1dbd2e)" style="fill: #1f77b4; fill-opacity: 0.05; stroke: #1f77b4; stroke-linejoin: miter"/>
   </g>
   <g id="patch_60">
    <path d="M 91.920762 86.648516 
L 353.708037 86.648516 
L 353.708037 359.8475 
L 91.920762 359.8475 
z
" clip-path="url(#p535b1dbd2e)" style="fill: #e377c2; fill-opacity: 0.05; stroke: #e377c2; stroke-linejoin: miter"/>
   </g>
   <g id="patch_61">
    <path d="M 99.530857 82.169844 
L 350.663999 82.169844 
L 350.663999 364.326172 
L 99.530857 364.326172 
z
" clip-path="url(#p535b1dbd2e)" style="fill: #aec7e8; fill-opacity: 0.05; stroke: #aec7e8; stroke-linejoin: miter"/>
   </g>
   <g id="patch_62">
    <path d="M 88.876724 95.605859 
L 364.36217 95.605859 
L 364.36217 361.340391 
L 88.876724 361.340391 
z
" clip-path="url(#p535b1dbd2e)" style="fill: #8c564b; fill-opacity: 0.05; stroke: #8c564b; stroke-linejoin: miter"/>
   </g>
   <g id="patch_63">
    <path d="M 107.140952 79.184062 
L 347.619961 79.184062 
L 347.619961 371.790625 
L 107.140952 371.790625 
z
" clip-path="url(#p535b1dbd2e)" style="fill: #aec7e8; fill-opacity: 0.05; stroke: #aec7e8; stroke-linejoin: miter"/>
   </g>
   <g id="patch_64">
    <path d="M 102.574895 80.676953 
L 346.097942 80.676953 
L 346.097942 361.340391 
L 102.574895 361.340391 
z
" clip-path="url(#p535b1dbd2e)" style="fill: #c5b0d5; fill-opacity: 0.05; stroke: #c5b0d5; stroke-linejoin: miter"/>
   </g>
   <g id="patch_65">
    <path d="M 90.398743 88.141406 
L 358.274094 88.141406 
L 358.274094 355.368828 
L 90.398743 355.368828 
z
" clip-path="url(#p535b1dbd2e)" style="fill: #2ca02c; fill-opacity: 0.05; stroke: #2ca02c; stroke-linejoin: miter"/>
   </g>
   <g id="patch_66">
    <path d="M 101.052876 85.155625 
L 347.619961 85.155625 
L 347.619961 358.354609 
L 101.052876 358.354609 
z
" clip-path="url(#p535b1dbd2e)" style="fill: #7f7f7f; fill-opacity: 0.05; stroke: #7f7f7f; stroke-linejoin: miter"/>
   </g>
   <g id="patch_67">
    <path d="M 98.008838 83.662734 
L 352.186018 83.662734 
L 352.186018 359.8475 
L 98.008838 359.8475 
z
" clip-path="url(#p535b1dbd2e)" style="fill: #bcbd22; fill-opacity: 0.05; stroke: #bcbd22; stroke-linejoin: miter"/>
   </g>
   <g id="patch_68">
    <path d="M 99.530857 80.676953 
L 349.14198 80.676953 
L 349.14198 371.790625 
L 99.530857 371.790625 
z
" clip-path="url(#p535b1dbd2e)" style="fill: #c49c94; fill-opacity: 0.05; stroke: #c49c94; stroke-linejoin: miter"/>
   </g>
   <g id="patch_69">
    <path d="M 104.096914 82.169844 
L 347.619961 82.169844 
L 347.619961 374.776406 
L 104.096914 374.776406 
z
" clip-path="url(#p535b1dbd2e)" style="fill: #dbdb8d; fill-opacity: 0.05; stroke: #dbdb8d; stroke-linejoin: miter"/>
   </g>
   <g id="patch_70">
    <path d="M 111.707009 73.2125 
L 336.965828 73.2125 
L 336.965828 377.762187 
L 111.707009 377.762187 
z
" clip-path="url(#p535b1dbd2e)" style="fill: #c5b0d5; fill-opacity: 0.05; stroke: #c5b0d5; stroke-linejoin: miter"/>
   </g>
   <g id="patch_71">
    <path d="M 105.618933 77.691172 
L 346.097942 77.691172 
L 346.097942 373.283516 
L 105.618933 373.283516 
z
" clip-path="url(#p535b1dbd2e)" style="fill: #c7c7c7; fill-opacity: 0.05; stroke: #c7c7c7; stroke-linejoin: miter"/>
   </g>
   <g id="patch_72">
    <path d="M 88.876724 92.620078 
L 358.274094 92.620078 
L 358.274094 362.833281 
L 88.876724 362.833281 
z
" clip-path="url(#p535b1dbd2e)" style="fill: #aec7e8; fill-opacity: 0.05; stroke: #aec7e8; stroke-linejoin: miter"/>
   </g>
   <g id="patch_73">
    <path d="M 107.140952 79.184062 
L 343.053904 79.184062 
L 343.053904 373.283516 
L 107.140952 373.283516 
z
" clip-path="url(#p535b1dbd2e)" style="fill: #98df8a; fill-opacity: 0.05; stroke: #98df8a; stroke-linejoin: miter"/>
   </g>
   <g id="patch_74">
    <path d="M 101.052876 82.169844 
L 350.663999 82.169844 
L 350.663999 379.255078 
L 101.052876 379.255078 
z
" clip-path="url(#p535b1dbd2e)" style="fill: #17becf; fill-opacity: 0.05; stroke: #17becf; stroke-linejoin: miter"/>
   </g>
   <g id="patch_75">
    <path d="M 99.530857 85.155625 
L 349.14198 85.155625 
L 349.14198 361.340391 
L 99.530857 361.340391 
z
" clip-path="url(#p535b1dbd2e)" style="fill: #7f7f7f; fill-opacity: 0.05; stroke: #7f7f7f; stroke-linejoin: miter"/>
   </g>
   <g id="patch_76">
    <path d="M 96.486819 88.141406 
L 352.186018 88.141406 
L 352.186018 368.804844 
L 96.486819 368.804844 
z
" clip-path="url(#p535b1dbd2e)" style="fill: #c49c94; fill-opacity: 0.05; stroke: #c49c94; stroke-linejoin: miter"/>
   </g>
   <g id="patch_77">
    <path d="M 107.140952 77.691172 
L 343.053904 77.691172 
L 343.053904 368.804844 
L 107.140952 368.804844 
z
" clip-path="url(#p535b1dbd2e)" style="fill: #c7c7c7; fill-opacity: 0.05; stroke: #c7c7c7; stroke-linejoin: miter"/>
   </g>
   <g id="patch_78">
    <path d="M 107.140952 74.705391 
L 343.053904 74.705391 
L 343.053904 370.297734 
L 107.140952 370.297734 
z
" clip-path="url(#p535b1dbd2e)" style="fill: #9edae5; fill-opacity: 0.05; stroke: #9edae5; stroke-linejoin: miter"/>
   </g>
   <g id="patch_79">
    <path d="M 102.574895 77.691172 
L 346.097942 77.691172 
L 346.097942 367.311953 
L 102.574895 367.311953 
z
" clip-path="url(#p535b1dbd2e)" style="fill: #1f77b4; fill-opacity: 0.05; stroke: #1f77b4; stroke-linejoin: miter"/>
   </g>
   <g id="patch_80">
    <path d="M 96.486819 86.648516 
L 353.708037 86.648516 
L 353.708037 353.875938 
L 96.486819 353.875938 
z
" clip-path="url(#p535b1dbd2e)" style="fill: #d62728; fill-opacity: 0.05; stroke: #d62728; stroke-linejoin: miter"/>
   </g>
   <g id="patch_81">
    <path d="M 105.618933 79.184062 
L 344.575923 79.184062 
L 344.575923 361.340391 
L 105.618933 361.340391 
z
" clip-path="url(#p535b1dbd2e)" style="fill: #d62728; fill-opacity: 0.05; stroke: #d62728; stroke-linejoin: miter"/>
   </g>
   <g id="patch_82">
    <path d="M 105.618933 79.184062 
L 344.575923 79.184062 
L 344.575923 367.311953 
L 105.618933 367.311953 
z
" clip-path="url(#p535b1dbd2e)" style="fill: #bcbd22; fill-opacity: 0.05; stroke: #bcbd22; stroke-linejoin: miter"/>
   </g>
   <g id="patch_83">
    <path d="M 98.008838 80.676953 
L 353.708037 80.676953 
L 353.708037 373.283516 
L 98.008838 373.283516 
z
" clip-path="url(#p535b1dbd2e)" style="fill: #9edae5; fill-opacity: 0.05; stroke: #9edae5; stroke-linejoin: miter"/>
   </g>
   <g id="patch_84">
    <path d="M 104.096914 82.169844 
L 349.14198 82.169844 
L 349.14198 370.297734 
L 104.096914 370.297734 
z
" clip-path="url(#p535b1dbd2e)" style="fill: #bcbd22; fill-opacity: 0.05; stroke: #bcbd22; stroke-linejoin: miter"/>
   </g>
   <g id="patch_85">
    <path d="M 99.530857 86.648516 
L 355.230056 86.648516 
L 355.230056 371.790625 
L 99.530857 371.790625 
z
" clip-path="url(#p535b1dbd2e)" style="fill: #f7b6d2; fill-opacity: 0.05; stroke: #f7b6d2; stroke-linejoin: miter"/>
   </g>
   <g id="patch_86">
    <path d="M 98.008838 85.155625 
L 350.663999 85.155625 
L 350.663999 364.326172 
L 98.008838 364.326172 
z
" clip-path="url(#p535b1dbd2e)" style="fill: #ff7f0e; fill-opacity: 0.05; stroke: #ff7f0e; stroke-linejoin: miter"/>
   </g>
   <g id="patch_87">
    <path d="M 101.052876 85.155625 
L 350.663999 85.155625 
L 350.663999 364.326172 
L 101.052876 364.326172 
z
" clip-path="url(#p535b1dbd2e)" style="fill: #dbdb8d; fill-opacity: 0.05; stroke: #dbdb8d; stroke-linejoin: miter"/>
   </g>
   <g id="patch_88">
    <path d="M 90.398743 88.141406 
L 359.796113 88.141406 
L 359.796113 362.833281 
L 90.398743 362.833281 
z
" clip-path="url(#p535b1dbd2e)" style="fill: #f7b6d2; fill-opacity: 0.05; stroke: #f7b6d2; stroke-linejoin: miter"/>
   </g>
   <g id="patch_89">
    <path d="M 102.574895 82.169844 
L 349.14198 82.169844 
L 349.14198 376.269297 
L 102.574895 376.269297 
z
" clip-path="url(#p535b1dbd2e)" style="fill: #e377c2; fill-opacity: 0.05; stroke: #e377c2; stroke-linejoin: miter"/>
   </g>
   <g id="patch_90">
    <path d="M 93.442781 94.112969 
L 358.274094 94.112969 
L 358.274094 353.875938 
L 93.442781 353.875938 
z
" clip-path="url(#p535b1dbd2e)" style="fill: #9467bd; fill-opacity: 0.05; stroke: #9467bd; stroke-linejoin: miter"/>
   </g>
   <g id="patch_91">
    <path d="M 107.140952 82.169844 
L 344.575923 82.169844 
L 344.575923 370.297734 
L 107.140952 370.297734 
z
" clip-path="url(#p535b1dbd2e)" style="fill: #c5b0d5; fill-opacity: 0.05; stroke: #c5b0d5; stroke-linejoin: miter"/>
   </g>
   <g id="patch_92">
    <path d="M 105.618933 79.184062 
L 340.009866 79.184062 
L 340.009866 371.790625 
L 105.618933 371.790625 
z
" clip-path="url(#p535b1dbd2e)" style="fill: #ffbb78; fill-opacity: 0.05; stroke: #ffbb78; stroke-linejoin: miter"/>
   </g>
   <g id="patch_93">
    <path d="M 101.052876 77.691172 
L 344.575923 77.691172 
L 344.575923 368.804844 
L 101.052876 368.804844 
z
" clip-path="url(#p535b1dbd2e)" style="fill: #7f7f7f; fill-opacity: 0.05; stroke: #7f7f7f; stroke-linejoin: miter"/>
   </g>
   <g id="patch_94">
    <path d="M 98.008838 82.169844 
L 349.14198 82.169844 
L 349.14198 370.297734 
L 98.008838 370.297734 
z
" clip-path="url(#p535b1dbd2e)" style="fill: #ff9896; fill-opacity: 0.05; stroke: #ff9896; stroke-linejoin: miter"/>
   </g>
   <g id="patch_95">
    <path d="M 107.140952 77.691172 
L 343.053904 77.691172 
L 343.053904 370.297734 
L 107.140952 370.297734 
z
" clip-path="url(#p535b1dbd2e)" style="fill: #f7b6d2; fill-opacity: 0.05; stroke: #f7b6d2; stroke-linejoin: miter"/>
   </g>
   <g id="patch_96">
    <path d="M 99.530857 82.169844 
L 353.708037 82.169844 
L 353.708037 370.297734 
L 99.530857 370.297734 
z
" clip-path="url(#p535b1dbd2e)" style="fill: #f7b6d2; fill-opacity: 0.05; stroke: #f7b6d2; stroke-linejoin: miter"/>
   </g>
   <g id="patch_97">
    <path d="M 102.574895 79.184062 
L 346.097942 79.184062 
L 346.097942 364.326172 
L 102.574895 364.326172 
z
" clip-path="url(#p535b1dbd2e)" style="fill: #c49c94; fill-opacity: 0.05; stroke: #c49c94; stroke-linejoin: miter"/>
   </g>
   <g id="patch_98">
    <path d="M 108.662971 77.691172 
L 341.531885 77.691172 
L 341.531885 370.297734 
L 108.662971 370.297734 
z
" clip-path="url(#p535b1dbd2e)" style="fill: #9467bd; fill-opacity: 0.05; stroke: #9467bd; stroke-linejoin: miter"/>
   </g>
   <g id="patch_99">
    <path d="M 101.052876 79.184062 
L 349.14198 79.184062 
L 349.14198 364.326172 
L 101.052876 364.326172 
z
" clip-path="url(#p535b1dbd2e)" style="fill: #8c564b; fill-opacity: 0.05; stroke: #8c564b; stroke-linejoin: miter"/>
   </g>
   <g id="patch_100">
    <path d="M 102.574895 85.155625 
L 347.619961 85.155625 
L 347.619961 362.833281 
L 102.574895 362.833281 
z
" clip-path="url(#p535b1dbd2e)" style="fill: #c49c94; fill-opacity: 0.05; stroke: #c49c94; stroke-linejoin: miter"/>
   </g>
   <g id="patch_101">
    <path d="M 110.18499 76.198281 
L 341.531885 76.198281 
L 341.531885 373.283516 
L 110.18499 373.283516 
z
" clip-path="url(#p535b1dbd2e)" style="fill: #1f77b4; fill-opacity: 0.05; stroke: #1f77b4; stroke-linejoin: miter"/>
   </g>
   <g id="patch_102">
    <path d="M 105.618933 76.198281 
L 343.053904 76.198281 
L 343.053904 367.311953 
L 105.618933 367.311953 
z
" clip-path="url(#p535b1dbd2e)" style="fill: #17becf; fill-opacity: 0.05; stroke: #17becf; stroke-linejoin: miter"/>
   </g>
   <g id="patch_103">
    <path d="M 31.04 407.62 
L 31.04 25.44 
" style="fill: none"/>
   </g>
   <g id="patch_104">
    <path d="M 420.676875 407.62 
L 420.676875 25.44 
" style="fill: none"/>
   </g>
   <g id="patch_105">
    <path d="M 31.04 407.62 
L 420.676875 407.62 
" style="fill: none"/>
   </g>
   <g id="patch_106">
    <path d="M 31.04 25.44 
L 420.676875 25.44 
" style="fill: none"/>
   </g>
   <g id="text_13">
    <!-- Average bounding box by class: asl100 / train -->
    <g style="fill: #262626" transform="translate(104.896562 19.44) scale(0.12 -0.12)">
     <defs>
      <path id="LiberationSans-41" d="M 3647 0 
L 3144 1288 
L 1138 1288 
L 631 0 
L 13 0 
L 1809 4403 
L 2488 4403 
L 4256 0 
L 3647 0 
z
M 2141 3953 
L 2113 3866 
Q 2034 3606 1881 3200 
L 1319 1753 
L 2966 1753 
L 2400 3206 
Q 2313 3422 2225 3694 
L 2141 3953 
z
" transform="scale(0.015625)"/>
      <path id="LiberationSans-76" d="M 1916 0 
L 1250 0 
L 22 3381 
L 622 3381 
L 1366 1181 
Q 1406 1056 1581 441 
L 1691 806 
L 1813 1175 
L 2581 3381 
L 3178 3381 
L 1916 0 
z
" transform="scale(0.015625)"/>
      <path id="LiberationSans-65" d="M 863 1572 
Q 863 991 1103 675 
Q 1344 359 1806 359 
Q 2172 359 2392 506 
Q 2613 653 2691 878 
L 3184 738 
Q 2881 -63 1806 -63 
Q 1056 -63 664 384 
Q 272 831 272 1713 
Q 272 2550 664 2997 
Q 1056 3444 1784 3444 
Q 3275 3444 3275 1647 
L 3275 1572 
L 863 1572 
z
M 2694 2003 
Q 2647 2538 2422 2783 
Q 2197 3028 1775 3028 
Q 1366 3028 1127 2754 
Q 888 2481 869 2003 
L 2694 2003 
z
" transform="scale(0.015625)"/>
      <path id="LiberationSans-72" d="M 444 0 
L 444 2594 
Q 444 2950 425 3381 
L 956 3381 
Q 981 2806 981 2691 
L 994 2691 
Q 1128 3125 1303 3284 
Q 1478 3444 1797 3444 
Q 1909 3444 2025 3413 
L 2025 2897 
Q 1913 2928 1725 2928 
Q 1375 2928 1190 2626 
Q 1006 2325 1006 1763 
L 1006 0 
L 444 0 
z
" transform="scale(0.015625)"/>
      <path id="LiberationSans-61" d="M 1294 -63 
Q 784 -63 528 206 
Q 272 475 272 944 
Q 272 1469 617 1750 
Q 963 2031 1731 2050 
L 2491 2063 
L 2491 2247 
Q 2491 2659 2316 2837 
Q 2141 3016 1766 3016 
Q 1388 3016 1216 2887 
Q 1044 2759 1009 2478 
L 422 2531 
Q 566 3444 1778 3444 
Q 2416 3444 2737 3151 
Q 3059 2859 3059 2306 
L 3059 850 
Q 3059 600 3125 473 
Q 3191 347 3375 347 
Q 3456 347 3559 369 
L 3559 19 
Q 3347 -31 3125 -31 
Q 2813 -31 2670 133 
Q 2528 297 2509 647 
L 2491 647 
Q 2275 259 1989 98 
Q 1703 -63 1294 -63 
z
M 1422 359 
Q 1731 359 1972 500 
Q 2213 641 2352 886 
Q 2491 1131 2491 1391 
L 2491 1669 
L 1875 1656 
Q 1478 1650 1273 1575 
Q 1069 1500 959 1344 
Q 850 1188 850 934 
Q 850 659 998 509 
Q 1147 359 1422 359 
z
" transform="scale(0.015625)"/>
      <path id="LiberationSans-67" d="M 1713 -1328 
Q 1159 -1328 831 -1111 
Q 503 -894 409 -494 
L 975 -413 
Q 1031 -647 1223 -773 
Q 1416 -900 1728 -900 
Q 2569 -900 2569 84 
L 2569 628 
L 2563 628 
Q 2403 303 2125 139 
Q 1847 -25 1475 -25 
Q 853 -25 561 387 
Q 269 800 269 1684 
Q 269 2581 583 3007 
Q 897 3434 1538 3434 
Q 1897 3434 2161 3270 
Q 2425 3106 2569 2803 
L 2575 2803 
Q 2575 2897 2587 3128 
Q 2600 3359 2613 3381 
L 3147 3381 
Q 3128 3213 3128 2681 
L 3128 97 
Q 3128 -1328 1713 -1328 
z
M 2569 1691 
Q 2569 2103 2456 2401 
Q 2344 2700 2139 2858 
Q 1934 3016 1675 3016 
Q 1244 3016 1047 2703 
Q 850 2391 850 1691 
Q 850 997 1034 694 
Q 1219 391 1666 391 
Q 1931 391 2137 547 
Q 2344 703 2456 995 
Q 2569 1288 2569 1691 
z
" transform="scale(0.015625)"/>
      <path id="LiberationSans-20" transform="scale(0.015625)"/>
      <path id="LiberationSans-62" d="M 3291 1706 
Q 3291 -63 2047 -63 
Q 1663 -63 1408 76 
Q 1153 216 994 525 
L 988 525 
Q 988 428 975 229 
Q 963 31 956 0 
L 413 0 
Q 431 169 431 697 
L 431 4638 
L 994 4638 
L 994 3316 
Q 994 3113 981 2838 
L 994 2838 
Q 1150 3163 1408 3303 
Q 1666 3444 2047 3444 
Q 2688 3444 2989 3012 
Q 3291 2581 3291 1706 
z
M 2700 1688 
Q 2700 2397 2512 2703 
Q 2325 3009 1903 3009 
Q 1428 3009 1211 2684 
Q 994 2359 994 1653 
Q 994 988 1206 670 
Q 1419 353 1897 353 
Q 2322 353 2511 667 
Q 2700 981 2700 1688 
z
" transform="scale(0.015625)"/>
      <path id="LiberationSans-6f" d="M 3291 1694 
Q 3291 806 2900 371 
Q 2509 -63 1766 -63 
Q 1025 -63 647 389 
Q 269 841 269 1694 
Q 269 3444 1784 3444 
Q 2559 3444 2925 3017 
Q 3291 2591 3291 1694 
z
M 2700 1694 
Q 2700 2394 2492 2711 
Q 2284 3028 1794 3028 
Q 1300 3028 1079 2704 
Q 859 2381 859 1694 
Q 859 1025 1076 689 
Q 1294 353 1759 353 
Q 2266 353 2483 678 
Q 2700 1003 2700 1694 
z
" transform="scale(0.015625)"/>
      <path id="LiberationSans-75" d="M 981 3381 
L 981 1238 
Q 981 903 1047 718 
Q 1113 534 1256 453 
Q 1400 372 1678 372 
Q 2084 372 2318 650 
Q 2553 928 2553 1422 
L 2553 3381 
L 3116 3381 
L 3116 722 
Q 3116 131 3134 0 
L 2603 0 
Q 2600 16 2597 84 
Q 2594 153 2589 242 
Q 2584 331 2578 578 
L 2569 578 
Q 2375 228 2120 82 
Q 1866 -63 1488 -63 
Q 931 -63 673 214 
Q 416 491 416 1128 
L 416 3381 
L 981 3381 
z
" transform="scale(0.015625)"/>
      <path id="LiberationSans-6e" d="M 2578 0 
L 2578 2144 
Q 2578 2478 2512 2662 
Q 2447 2847 2303 2928 
Q 2159 3009 1881 3009 
Q 1475 3009 1240 2731 
Q 1006 2453 1006 1959 
L 1006 0 
L 444 0 
L 444 2659 
Q 444 3250 425 3381 
L 956 3381 
Q 959 3366 962 3297 
Q 966 3228 970 3139 
Q 975 3050 981 2803 
L 991 2803 
Q 1184 3153 1439 3298 
Q 1694 3444 2072 3444 
Q 2628 3444 2886 3167 
Q 3144 2891 3144 2253 
L 3144 0 
L 2578 0 
z
" transform="scale(0.015625)"/>
      <path id="LiberationSans-64" d="M 2566 544 
Q 2409 219 2151 78 
Q 1894 -63 1513 -63 
Q 872 -63 570 368 
Q 269 800 269 1675 
Q 269 3444 1513 3444 
Q 1897 3444 2153 3303 
Q 2409 3163 2566 2856 
L 2572 2856 
L 2566 3234 
L 2566 4638 
L 3128 4638 
L 3128 697 
Q 3128 169 3147 0 
L 2609 0 
Q 2600 50 2589 231 
Q 2578 413 2578 544 
L 2566 544 
z
M 859 1694 
Q 859 984 1046 678 
Q 1234 372 1656 372 
Q 2134 372 2350 703 
Q 2566 1034 2566 1731 
Q 2566 2403 2350 2715 
Q 2134 3028 1663 3028 
Q 1238 3028 1048 2714 
Q 859 2400 859 1694 
z
" transform="scale(0.015625)"/>
      <path id="LiberationSans-69" d="M 428 4100 
L 428 4638 
L 991 4638 
L 991 4100 
L 428 4100 
z
M 428 0 
L 428 3381 
L 991 3381 
L 991 0 
L 428 0 
z
" transform="scale(0.015625)"/>
      <path id="LiberationSans-78" d="M 2503 0 
L 1594 1388 
L 678 0 
L 72 0 
L 1275 1738 
L 128 3381 
L 750 3381 
L 1594 2066 
L 2431 3381 
L 3059 3381 
L 1913 1744 
L 3131 0 
L 2503 0 
z
" transform="scale(0.015625)"/>
      <path id="LiberationSans-79" d="M 597 -1328 
Q 366 -1328 209 -1294 
L 209 -872 
Q 328 -891 472 -891 
Q 997 -891 1303 -119 
L 1356 16 
L 16 3381 
L 616 3381 
L 1328 1513 
Q 1344 1469 1366 1408 
Q 1388 1347 1506 1000 
Q 1625 653 1634 613 
L 1853 1228 
L 2594 3381 
L 3188 3381 
L 1888 0 
Q 1678 -541 1497 -805 
Q 1316 -1069 1095 -1198 
Q 875 -1328 597 -1328 
z
" transform="scale(0.015625)"/>
      <path id="LiberationSans-63" d="M 859 1706 
Q 859 1031 1071 706 
Q 1284 381 1713 381 
Q 2013 381 2214 543 
Q 2416 706 2463 1044 
L 3031 1006 
Q 2966 519 2616 228 
Q 2266 -63 1728 -63 
Q 1019 -63 645 385 
Q 272 834 272 1694 
Q 272 2547 647 2995 
Q 1022 3444 1722 3444 
Q 2241 3444 2583 3175 
Q 2925 2906 3013 2434 
L 2434 2391 
Q 2391 2672 2212 2837 
Q 2034 3003 1706 3003 
Q 1259 3003 1059 2706 
Q 859 2409 859 1706 
z
" transform="scale(0.015625)"/>
      <path id="LiberationSans-6c" d="M 431 0 
L 431 4638 
L 994 4638 
L 994 0 
L 431 0 
z
" transform="scale(0.015625)"/>
      <path id="LiberationSans-73" d="M 2969 934 
Q 2969 456 2608 196 
Q 2247 -63 1597 -63 
Q 966 -63 623 145 
Q 281 353 178 794 
L 675 891 
Q 747 619 972 492 
Q 1197 366 1597 366 
Q 2025 366 2223 497 
Q 2422 628 2422 891 
Q 2422 1091 2284 1216 
Q 2147 1341 1841 1422 
L 1438 1528 
Q 953 1653 748 1773 
Q 544 1894 428 2066 
Q 313 2238 313 2488 
Q 313 2950 642 3192 
Q 972 3434 1603 3434 
Q 2163 3434 2492 3237 
Q 2822 3041 2909 2606 
L 2403 2544 
Q 2356 2769 2151 2889 
Q 1947 3009 1603 3009 
Q 1222 3009 1040 2893 
Q 859 2778 859 2544 
Q 859 2400 934 2306 
Q 1009 2213 1156 2147 
Q 1303 2081 1775 1966 
Q 2222 1853 2419 1758 
Q 2616 1663 2730 1547 
Q 2844 1431 2906 1279 
Q 2969 1128 2969 934 
z
" transform="scale(0.015625)"/>
      <path id="LiberationSans-3a" d="M 584 2734 
L 584 3381 
L 1194 3381 
L 1194 2734 
L 584 2734 
z
M 584 0 
L 584 647 
L 1194 647 
L 1194 0 
L 584 0 
z
" transform="scale(0.015625)"/>
      <path id="LiberationSans-2f" d="M 0 -63 
L 1284 4638 
L 1778 4638 
L 506 -63 
L 0 -63 
z
" transform="scale(0.015625)"/>
      <path id="LiberationSans-74" d="M 1731 25 
Q 1453 -50 1163 -50 
Q 488 -50 488 716 
L 488 2972 
L 97 2972 
L 97 3381 
L 509 3381 
L 675 4138 
L 1050 4138 
L 1050 3381 
L 1675 3381 
L 1675 2972 
L 1050 2972 
L 1050 838 
Q 1050 594 1129 495 
Q 1209 397 1406 397 
Q 1519 397 1731 441 
L 1731 25 
z
" transform="scale(0.015625)"/>
     </defs>
     <use xlink:href="#LiberationSans-41"/>
     <use xlink:href="#LiberationSans-76" transform="translate(64.949219 0)"/>
     <use xlink:href="#LiberationSans-65" transform="translate(114.949219 0)"/>
     <use xlink:href="#LiberationSans-72" transform="translate(170.564453 0)"/>
     <use xlink:href="#LiberationSans-61" transform="translate(203.865234 0)"/>
     <use xlink:href="#LiberationSans-67" transform="translate(259.480469 0)"/>
     <use xlink:href="#LiberationSans-65" transform="translate(315.095703 0)"/>
     <use xlink:href="#LiberationSans-20" transform="translate(370.710938 0)"/>
     <use xlink:href="#LiberationSans-62" transform="translate(398.494141 0)"/>
     <use xlink:href="#LiberationSans-6f" transform="translate(454.109375 0)"/>
     <use xlink:href="#LiberationSans-75" transform="translate(509.724609 0)"/>
     <use xlink:href="#LiberationSans-6e" transform="translate(565.339844 0)"/>
     <use xlink:href="#LiberationSans-64" transform="translate(620.955078 0)"/>
     <use xlink:href="#LiberationSans-69" transform="translate(676.570312 0)"/>
     <use xlink:href="#LiberationSans-6e" transform="translate(698.787109 0)"/>
     <use xlink:href="#LiberationSans-67" transform="translate(754.402344 0)"/>
     <use xlink:href="#LiberationSans-20" transform="translate(810.017578 0)"/>
     <use xlink:href="#LiberationSans-62" transform="translate(837.800781 0)"/>
     <use xlink:href="#LiberationSans-6f" transform="translate(893.416016 0)"/>
     <use xlink:href="#LiberationSans-78" transform="translate(949.03125 0)"/>
     <use xlink:href="#LiberationSans-20" transform="translate(999.03125 0)"/>
     <use xlink:href="#LiberationSans-62" transform="translate(1026.814453 0)"/>
     <use xlink:href="#LiberationSans-79" transform="translate(1082.429688 0)"/>
     <use xlink:href="#LiberationSans-20" transform="translate(1132.429688 0)"/>
     <use xlink:href="#LiberationSans-63" transform="translate(1160.212891 0)"/>
     <use xlink:href="#LiberationSans-6c" transform="translate(1210.212891 0)"/>
     <use xlink:href="#LiberationSans-61" transform="translate(1232.429688 0)"/>
     <use xlink:href="#LiberationSans-73" transform="translate(1288.044922 0)"/>
     <use xlink:href="#LiberationSans-73" transform="translate(1338.044922 0)"/>
     <use xlink:href="#LiberationSans-3a" transform="translate(1388.044922 0)"/>
     <use xlink:href="#LiberationSans-20" transform="translate(1415.828125 0)"/>
     <use xlink:href="#LiberationSans-61" transform="translate(1443.611328 0)"/>
     <use xlink:href="#LiberationSans-73" transform="translate(1499.226562 0)"/>
     <use xlink:href="#LiberationSans-6c" transform="translate(1549.226562 0)"/>
     <use xlink:href="#LiberationSans-31" transform="translate(1571.443359 0)"/>
     <use xlink:href="#LiberationSans-30" transform="translate(1627.058594 0)"/>
     <use xlink:href="#LiberationSans-30" transform="translate(1682.673828 0)"/>
     <use xlink:href="#LiberationSans-20" transform="translate(1738.289062 0)"/>
     <use xlink:href="#LiberationSans-2f" transform="translate(1766.072266 0)"/>
     <use xlink:href="#LiberationSans-20" transform="translate(1793.855469 0)"/>
     <use xlink:href="#LiberationSans-74" transform="translate(1821.638672 0)"/>
     <use xlink:href="#LiberationSans-72" transform="translate(1849.421875 0)"/>
     <use xlink:href="#LiberationSans-61" transform="translate(1882.722656 0)"/>
     <use xlink:href="#LiberationSans-69" transform="translate(1938.337891 0)"/>
     <use xlink:href="#LiberationSans-6e" transform="translate(1960.554688 0)"/>
    </g>
   </g>
  </g>
 </g>
 <defs>
  <clipPath id="p535b1dbd2e">
   <rect x="31.04" y="25.44" width="389.636875" height="382.18"/>
  </clipPath>
 </defs>
</svg>
