<?xml version="1.0" encoding="utf-8" standalone="no"?>
<!DOCTYPE svg PUBLIC "-//W3C//DTD SVG 1.1//EN"
  "http://www.w3.org/Graphics/SVG/1.1/DTD/svg11.dtd">
<svg xmlns:xlink="http://www.w3.org/1999/xlink" width="1725.881875pt" height="442.803757pt" viewBox="0 0 1725.881875 442.803757" xmlns="http://www.w3.org/2000/svg" version="1.1">
 <metadata>
  <rdf:RDF xmlns:dc="http://purl.org/dc/elements/1.1/" xmlns:cc="http://creativecommons.org/ns#" xmlns:rdf="http://www.w3.org/1999/02/22-rdf-syntax-ns#">
   <cc:Work>
    <dc:type rdf:resource="http://purl.org/dc/dcmitype/StillImage"/>
    <dc:date>2026-03-04T22:16:55.369499</dc:date>
    <dc:format>image/svg+xml</dc:format>
    <dc:creator>
     <cc:Agent>
      <dc:title>Matplotlib v3.10.0, https://matplotlib.org/</dc:title>
     </cc:Agent>
    </dc:creator>
   </cc:Work>
  </rdf:RDF>
 </metadata>
 <defs>
  <style type="text/css">*{stroke-linejoin: round; stroke-linecap: butt}</style>
 </defs>
 <g id="figure_1">
  <g id="patch_1">
   <path d="M 0 442.803757 
L 1725.881875 442.803757 
L 1725.881875 -0 
L 0 -0 
z
" style="fill: #ffffff"/>
  </g>
  <g id="axes_1">
   <g id="patch_2">
    <path d="M 37.921875 387.735464 
L 448.561875 387.735464 
L 448.561875 66.48 
L 37.921875 66.48 
z
" style="fill: #eaeaf2"/>
   </g>
   <g id="matplotlib.axis_1">
    <g id="xtick_1">
     <g id="line2d_1">
      <path d="M 136.582135 387.735464 
L 136.582135 66.48 
" clip-path="url(#pb3ca54bbc0)" style="fill: none; stroke: #ffffff; stroke-width: 0.8; stroke-linecap: round"/>
     </g>
     <g id="line2d_2"/>
     <g id="text_1">
      <!-- S3D -->
      <g style="fill: #262626" transform="translate(118.697734 407.238004) rotate(-30) scale(0.1 -0.1)">
       <defs>
        <path id="LiberationSans-53" d="M 3975 1216 
Q 3975 606 3498 271 
Q 3022 -63 2156 -63 
Q 547 -63 291 1056 
L 869 1172 
Q 969 775 1294 589 
Q 1619 403 2178 403 
Q 2756 403 3070 601 
Q 3384 800 3384 1184 
Q 3384 1400 3286 1534 
Q 3188 1669 3009 1756 
Q 2831 1844 2584 1903 
Q 2338 1963 2038 2031 
Q 1516 2147 1245 2262 
Q 975 2378 819 2520 
Q 663 2663 580 2853 
Q 497 3044 497 3291 
Q 497 3856 930 4162 
Q 1363 4469 2169 4469 
Q 2919 4469 3316 4239 
Q 3713 4009 3872 3456 
L 3284 3353 
Q 3188 3703 2916 3861 
Q 2644 4019 2163 4019 
Q 1634 4019 1356 3844 
Q 1078 3669 1078 3322 
Q 1078 3119 1186 2986 
Q 1294 2853 1497 2761 
Q 1700 2669 2306 2534 
Q 2509 2488 2711 2439 
Q 2913 2391 3097 2323 
Q 3281 2256 3442 2165 
Q 3603 2075 3722 1944 
Q 3841 1813 3908 1634 
Q 3975 1456 3975 1216 
z
" transform="scale(0.015625)"/>
        <path id="LiberationSans-33" d="M 3278 1216 
Q 3278 606 2890 271 
Q 2503 -63 1784 -63 
Q 1116 -63 717 239 
Q 319 541 244 1131 
L 825 1184 
Q 938 403 1784 403 
Q 2209 403 2451 612 
Q 2694 822 2694 1234 
Q 2694 1594 2417 1795 
Q 2141 1997 1619 1997 
L 1300 1997 
L 1300 2484 
L 1606 2484 
Q 2069 2484 2323 2686 
Q 2578 2888 2578 3244 
Q 2578 3597 2370 3801 
Q 2163 4006 1753 4006 
Q 1381 4006 1151 3815 
Q 922 3625 884 3278 
L 319 3322 
Q 381 3863 767 4166 
Q 1153 4469 1759 4469 
Q 2422 4469 2789 4161 
Q 3156 3853 3156 3303 
Q 3156 2881 2920 2617 
Q 2684 2353 2234 2259 
L 2234 2247 
Q 2728 2194 3003 1916 
Q 3278 1638 3278 1216 
z
" transform="scale(0.015625)"/>
        <path id="LiberationSans-44" d="M 4316 2247 
Q 4316 1566 4050 1055 
Q 3784 544 3296 272 
Q 2809 0 2172 0 
L 525 0 
L 525 4403 
L 1981 4403 
Q 3100 4403 3708 3842 
Q 4316 3281 4316 2247 
z
M 3716 2247 
Q 3716 3066 3267 3495 
Q 2819 3925 1969 3925 
L 1122 3925 
L 1122 478 
L 2103 478 
Q 2588 478 2955 690 
Q 3322 903 3519 1303 
Q 3716 1703 3716 2247 
z
" transform="scale(0.015625)"/>
       </defs>
       <use xlink:href="#LiberationSans-53"/>
       <use xlink:href="#LiberationSans-33" transform="translate(66.699219 0)"/>
       <use xlink:href="#LiberationSans-44" transform="translate(122.314453 0)"/>
      </g>
     </g>
    </g>
    <g id="xtick_2">
     <g id="line2d_3">
      <path d="M 349.901615 387.735464 
L 349.901615 66.48 
" clip-path="url(#pb3ca54bbc0)" style="fill: none; stroke: #ffffff; stroke-width: 0.8; stroke-linecap: round"/>
     </g>
     <g id="line2d_4"/>
     <g id="text_2">
      <!-- MViTv2_S -->
      <g style="fill: #262626" transform="translate(309.072954 420.484879) rotate(-30) scale(0.1 -0.1)">
       <defs>
        <path id="LiberationSans-4d" d="M 4269 0 
L 4269 2938 
Q 4269 3425 4297 3875 
Q 4144 3316 4022 3000 
L 2884 0 
L 2466 0 
L 1313 3000 
L 1138 3531 
L 1034 3875 
L 1044 3528 
L 1056 2938 
L 1056 0 
L 525 0 
L 525 4403 
L 1309 4403 
L 2481 1350 
Q 2544 1166 2601 955 
Q 2659 744 2678 650 
Q 2703 775 2783 1029 
Q 2863 1284 2891 1350 
L 4041 4403 
L 4806 4403 
L 4806 0 
L 4269 0 
z
" transform="scale(0.015625)"/>
        <path id="LiberationSans-56" d="M 2444 0 
L 1825 0 
L 28 4403 
L 656 4403 
L 1875 1303 
L 2138 525 
L 2400 1303 
L 3613 4403 
L 4241 4403 
L 2444 0 
z
" transform="scale(0.015625)"/>
        <path id="LiberationSans-69" d="M 428 4100 
L 428 4638 
L 991 4638 
L 991 4100 
L 428 4100 
z
M 428 0 
L 428 3381 
L 991 3381 
L 991 0 
L 428 0 
z
" transform="scale(0.015625)"/>
        <path id="LiberationSans-54" d="M 2250 3916 
L 2250 0 
L 1656 0 
L 1656 3916 
L 144 3916 
L 144 4403 
L 3763 4403 
L 3763 3916 
L 2250 3916 
z
" transform="scale(0.015625)"/>
        <path id="LiberationSans-76" d="M 1916 0 
L 1250 0 
L 22 3381 
L 622 3381 
L 1366 1181 
Q 1406 1056 1581 441 
L 1691 806 
L 1813 1175 
L 2581 3381 
L 3178 3381 
L 1916 0 
z
" transform="scale(0.015625)"/>
        <path id="LiberationSans-32" d="M 322 0 
L 322 397 
Q 481 763 711 1042 
Q 941 1322 1194 1548 
Q 1447 1775 1695 1969 
Q 1944 2163 2144 2356 
Q 2344 2550 2467 2762 
Q 2591 2975 2591 3244 
Q 2591 3606 2378 3806 
Q 2166 4006 1788 4006 
Q 1428 4006 1195 3811 
Q 963 3616 922 3263 
L 347 3316 
Q 409 3844 795 4156 
Q 1181 4469 1788 4469 
Q 2453 4469 2811 4155 
Q 3169 3841 3169 3263 
Q 3169 3006 3051 2753 
Q 2934 2500 2703 2247 
Q 2472 1994 1819 1463 
Q 1459 1169 1246 933 
Q 1034 697 941 478 
L 3238 478 
L 3238 0 
L 322 0 
z
" transform="scale(0.015625)"/>
        <path id="LiberationSans-5f" d="M -97 -1272 
L -97 -866 
L 3631 -866 
L 3631 -1272 
L -97 -1272 
z
" transform="scale(0.015625)"/>
       </defs>
       <use xlink:href="#LiberationSans-4d"/>
       <use xlink:href="#LiberationSans-56" transform="translate(83.300781 0)"/>
       <use xlink:href="#LiberationSans-69" transform="translate(148.25 0)"/>
       <use xlink:href="#LiberationSans-54" transform="translate(170.466797 0)"/>
       <use xlink:href="#LiberationSans-76" transform="translate(231.550781 0)"/>
       <use xlink:href="#LiberationSans-32" transform="translate(281.550781 0)"/>
       <use xlink:href="#LiberationSans-5f" transform="translate(337.166016 0)"/>
       <use xlink:href="#LiberationSans-53" transform="translate(392.78125 0)"/>
      </g>
     </g>
    </g>
    <g id="text_3">
     <!-- Model -->
     <g style="fill: #262626" transform="translate(229.624687 433.528757) scale(0.1 -0.1)">
      <defs>
       <path id="LiberationSans-6f" d="M 3291 1694 
Q 3291 806 2900 371 
Q 2509 -63 1766 -63 
Q 1025 -63 647 389 
Q 269 841 269 1694 
Q 269 3444 1784 3444 
Q 2559 3444 2925 3017 
Q 3291 2591 3291 1694 
z
M 2700 1694 
Q 2700 2394 2492 2711 
Q 2284 3028 1794 3028 
Q 1300 3028 1079 2704 
Q 859 2381 859 1694 
Q 859 1025 1076 689 
Q 1294 353 1759 353 
Q 2266 353 2483 678 
Q 2700 1003 2700 1694 
z
" transform="scale(0.015625)"/>
       <path id="LiberationSans-64" d="M 2566 544 
Q 2409 219 2151 78 
Q 1894 -63 1513 -63 
Q 872 -63 570 368 
Q 269 800 269 1675 
Q 269 3444 1513 3444 
Q 1897 3444 2153 3303 
Q 2409 3163 2566 2856 
L 2572 2856 
L 2566 3234 
L 2566 4638 
L 3128 4638 
L 3128 697 
Q 3128 169 3147 0 
L 2609 0 
Q 2600 50 2589 231 
Q 2578 413 2578 544 
L 2566 544 
z
M 859 1694 
Q 859 984 1046 678 
Q 1234 372 1656 372 
Q 2134 372 2350 703 
Q 2566 1034 2566 1731 
Q 2566 2403 2350 2715 
Q 2134 3028 1663 3028 
Q 1238 3028 1048 2714 
Q 859 2400 859 1694 
z
" transform="scale(0.015625)"/>
       <path id="LiberationSans-65" d="M 863 1572 
Q 863 991 1103 675 
Q 1344 359 1806 359 
Q 2172 359 2392 506 
Q 2613 653 2691 878 
L 3184 738 
Q 2881 -63 1806 -63 
Q 1056 -63 664 384 
Q 272 831 272 1713 
Q 272 2550 664 2997 
Q 1056 3444 1784 3444 
Q 3275 3444 3275 1647 
L 3275 1572 
L 863 1572 
z
M 2694 2003 
Q 2647 2538 2422 2783 
Q 2197 3028 1775 3028 
Q 1366 3028 1127 2754 
Q 888 2481 869 2003 
L 2694 2003 
z
" transform="scale(0.015625)"/>
       <path id="LiberationSans-6c" d="M 431 0 
L 431 4638 
L 994 4638 
L 994 0 
L 431 0 
z
" transform="scale(0.015625)"/>
      </defs>
      <use xlink:href="#LiberationSans-4d"/>
      <use xlink:href="#LiberationSans-6f" transform="translate(83.300781 0)"/>
      <use xlink:href="#LiberationSans-64" transform="translate(138.916016 0)"/>
      <use xlink:href="#LiberationSans-65" transform="translate(194.53125 0)"/>
      <use xlink:href="#LiberationSans-6c" transform="translate(250.146484 0)"/>
     </g>
    </g>
   </g>
   <g id="matplotlib.axis_2">
    <g id="ytick_1">
     <g id="line2d_5">
      <path d="M 37.921875 387.735464 
L 448.561875 387.735464 
" clip-path="url(#pb3ca54bbc0)" style="fill: none; stroke-dasharray: 2.96,1.28; stroke-dashoffset: 0; stroke: #ffffff; stroke-opacity: 0.7; stroke-width: 0.8"/>
     </g>
     <g id="line2d_6"/>
     <g id="text_4">
      <!-- 0.0 -->
      <g style="fill: #262626" transform="translate(20.521875 391.358901) scale(0.1 -0.1)">
       <defs>
        <path id="LiberationSans-30" d="M 3309 2203 
Q 3309 1100 2920 518 
Q 2531 -63 1772 -63 
Q 1013 -63 631 515 
Q 250 1094 250 2203 
Q 250 3338 620 3903 
Q 991 4469 1791 4469 
Q 2569 4469 2939 3897 
Q 3309 3325 3309 2203 
z
M 2738 2203 
Q 2738 3156 2517 3584 
Q 2297 4013 1791 4013 
Q 1272 4013 1045 3591 
Q 819 3169 819 2203 
Q 819 1266 1048 831 
Q 1278 397 1778 397 
Q 2275 397 2506 840 
Q 2738 1284 2738 2203 
z
" transform="scale(0.015625)"/>
        <path id="LiberationSans-2e" d="M 584 0 
L 584 684 
L 1194 684 
L 1194 0 
L 584 0 
z
" transform="scale(0.015625)"/>
       </defs>
       <use xlink:href="#LiberationSans-30"/>
       <use xlink:href="#LiberationSans-2e" transform="translate(55.615234 0)"/>
       <use xlink:href="#LiberationSans-30" transform="translate(83.398438 0)"/>
      </g>
     </g>
    </g>
    <g id="ytick_2">
     <g id="line2d_7">
      <path d="M 37.921875 323.210139 
L 448.561875 323.210139 
" clip-path="url(#pb3ca54bbc0)" style="fill: none; stroke-dasharray: 2.96,1.28; stroke-dashoffset: 0; stroke: #ffffff; stroke-opacity: 0.7; stroke-width: 0.8"/>
     </g>
     <g id="line2d_8"/>
     <g id="text_5">
      <!-- 0.2 -->
      <g style="fill: #262626" transform="translate(20.521875 326.833576) scale(0.1 -0.1)">
       <use xlink:href="#LiberationSans-30"/>
       <use xlink:href="#LiberationSans-2e" transform="translate(55.615234 0)"/>
       <use xlink:href="#LiberationSans-32" transform="translate(83.398438 0)"/>
      </g>
     </g>
    </g>
    <g id="ytick_3">
     <g id="line2d_9">
      <path d="M 37.921875 258.684813 
L 448.561875 258.684813 
" clip-path="url(#pb3ca54bbc0)" style="fill: none; stroke-dasharray: 2.96,1.28; stroke-dashoffset: 0; stroke: #ffffff; stroke-opacity: 0.7; stroke-width: 0.8"/>
     </g>
     <g id="line2d_10"/>
     <g id="text_6">
      <!-- 0.4 -->
      <g style="fill: #262626" transform="translate(20.521875 262.308251) scale(0.1 -0.1)">
       <defs>
        <path id="LiberationSans-34" d="M 2753 997 
L 2753 0 
L 2222 0 
L 2222 997 
L 147 997 
L 147 1434 
L 2163 4403 
L 2753 4403 
L 2753 1441 
L 3372 1441 
L 3372 997 
L 2753 997 
z
M 2222 3769 
Q 2216 3750 2134 3603 
Q 2053 3456 2013 3397 
L 884 1734 
L 716 1503 
L 666 1441 
L 2222 1441 
L 2222 3769 
z
" transform="scale(0.015625)"/>
       </defs>
       <use xlink:href="#LiberationSans-30"/>
       <use xlink:href="#LiberationSans-2e" transform="translate(55.615234 0)"/>
       <use xlink:href="#LiberationSans-34" transform="translate(83.398438 0)"/>
      </g>
     </g>
    </g>
    <g id="ytick_4">
     <g id="line2d_11">
      <path d="M 37.921875 194.159488 
L 448.561875 194.159488 
" clip-path="url(#pb3ca54bbc0)" style="fill: none; stroke-dasharray: 2.96,1.28; stroke-dashoffset: 0; stroke: #ffffff; stroke-opacity: 0.7; stroke-width: 0.8"/>
     </g>
     <g id="line2d_12"/>
     <g id="text_7">
      <!-- 0.6 -->
      <g style="fill: #262626" transform="translate(20.521875 197.782925) scale(0.1 -0.1)">
       <defs>
        <path id="LiberationSans-36" d="M 3278 1441 
Q 3278 744 2900 340 
Q 2522 -63 1856 -63 
Q 1113 -63 719 490 
Q 325 1044 325 2100 
Q 325 3244 734 3856 
Q 1144 4469 1900 4469 
Q 2897 4469 3156 3572 
L 2619 3475 
Q 2453 4013 1894 4013 
Q 1413 4013 1148 3564 
Q 884 3116 884 2266 
Q 1038 2550 1316 2698 
Q 1594 2847 1953 2847 
Q 2563 2847 2920 2465 
Q 3278 2084 3278 1441 
z
M 2706 1416 
Q 2706 1894 2472 2153 
Q 2238 2413 1819 2413 
Q 1425 2413 1183 2183 
Q 941 1953 941 1550 
Q 941 1041 1192 716 
Q 1444 391 1838 391 
Q 2244 391 2475 664 
Q 2706 938 2706 1416 
z
" transform="scale(0.015625)"/>
       </defs>
       <use xlink:href="#LiberationSans-30"/>
       <use xlink:href="#LiberationSans-2e" transform="translate(55.615234 0)"/>
       <use xlink:href="#LiberationSans-36" transform="translate(83.398438 0)"/>
      </g>
     </g>
    </g>
    <g id="ytick_5">
     <g id="line2d_13">
      <path d="M 37.921875 129.634162 
L 448.561875 129.634162 
" clip-path="url(#pb3ca54bbc0)" style="fill: none; stroke-dasharray: 2.96,1.28; stroke-dashoffset: 0; stroke: #ffffff; stroke-opacity: 0.7; stroke-width: 0.8"/>
     </g>
     <g id="line2d_14"/>
     <g id="text_8">
      <!-- 0.8 -->
      <g style="fill: #262626" transform="translate(20.521875 133.2576) scale(0.1 -0.1)">
       <defs>
        <path id="LiberationSans-38" d="M 3281 1228 
Q 3281 619 2893 278 
Q 2506 -63 1781 -63 
Q 1075 -63 676 271 
Q 278 606 278 1222 
Q 278 1653 525 1947 
Q 772 2241 1156 2303 
L 1156 2316 
Q 797 2400 589 2681 
Q 381 2963 381 3341 
Q 381 3844 757 4156 
Q 1134 4469 1769 4469 
Q 2419 4469 2795 4162 
Q 3172 3856 3172 3334 
Q 3172 2956 2962 2675 
Q 2753 2394 2391 2322 
L 2391 2309 
Q 2813 2241 3047 1952 
Q 3281 1663 3281 1228 
z
M 2588 3303 
Q 2588 4050 1769 4050 
Q 1372 4050 1164 3862 
Q 956 3675 956 3303 
Q 956 2925 1170 2726 
Q 1384 2528 1775 2528 
Q 2172 2528 2380 2711 
Q 2588 2894 2588 3303 
z
M 2697 1281 
Q 2697 1691 2453 1898 
Q 2209 2106 1769 2106 
Q 1341 2106 1100 1882 
Q 859 1659 859 1269 
Q 859 359 1788 359 
Q 2247 359 2472 579 
Q 2697 800 2697 1281 
z
" transform="scale(0.015625)"/>
       </defs>
       <use xlink:href="#LiberationSans-30"/>
       <use xlink:href="#LiberationSans-2e" transform="translate(55.615234 0)"/>
       <use xlink:href="#LiberationSans-38" transform="translate(83.398438 0)"/>
      </g>
     </g>
    </g>
    <g id="text_9">
     <!-- Average Per-Class Accuracy (%) -->
     <g style="fill: #262626" transform="translate(14.446875 299.818669) rotate(-90) scale(0.1 -0.1)">
      <defs>
       <path id="LiberationSans-41" d="M 3647 0 
L 3144 1288 
L 1138 1288 
L 631 0 
L 13 0 
L 1809 4403 
L 2488 4403 
L 4256 0 
L 3647 0 
z
M 2141 3953 
L 2113 3866 
Q 2034 3606 1881 3200 
L 1319 1753 
L 2966 1753 
L 2400 3206 
Q 2313 3422 2225 3694 
L 2141 3953 
z
" transform="scale(0.015625)"/>
       <path id="LiberationSans-72" d="M 444 0 
L 444 2594 
Q 444 2950 425 3381 
L 956 3381 
Q 981 2806 981 2691 
L 994 2691 
Q 1128 3125 1303 3284 
Q 1478 3444 1797 3444 
Q 1909 3444 2025 3413 
L 2025 2897 
Q 1913 2928 1725 2928 
Q 1375 2928 1190 2626 
Q 1006 2325 1006 1763 
L 1006 0 
L 444 0 
z
" transform="scale(0.015625)"/>
       <path id="LiberationSans-61" d="M 1294 -63 
Q 784 -63 528 206 
Q 272 475 272 944 
Q 272 1469 617 1750 
Q 963 2031 1731 2050 
L 2491 2063 
L 2491 2247 
Q 2491 2659 2316 2837 
Q 2141 3016 1766 3016 
Q 1388 3016 1216 2887 
Q 1044 2759 1009 2478 
L 422 2531 
Q 566 3444 1778 3444 
Q 2416 3444 2737 3151 
Q 3059 2859 3059 2306 
L 3059 850 
Q 3059 600 3125 473 
Q 3191 347 3375 347 
Q 3456 347 3559 369 
L 3559 19 
Q 3347 -31 3125 -31 
Q 2813 -31 2670 133 
Q 2528 297 2509 647 
L 2491 647 
Q 2275 259 1989 98 
Q 1703 -63 1294 -63 
z
M 1422 359 
Q 1731 359 1972 500 
Q 2213 641 2352 886 
Q 2491 1131 2491 1391 
L 2491 1669 
L 1875 1656 
Q 1478 1650 1273 1575 
Q 1069 1500 959 1344 
Q 850 1188 850 934 
Q 850 659 998 509 
Q 1147 359 1422 359 
z
" transform="scale(0.015625)"/>
       <path id="LiberationSans-67" d="M 1713 -1328 
Q 1159 -1328 831 -1111 
Q 503 -894 409 -494 
L 975 -413 
Q 1031 -647 1223 -773 
Q 1416 -900 1728 -900 
Q 2569 -900 2569 84 
L 2569 628 
L 2563 628 
Q 2403 303 2125 139 
Q 1847 -25 1475 -25 
Q 853 -25 561 387 
Q 269 800 269 1684 
Q 269 2581 583 3007 
Q 897 3434 1538 3434 
Q 1897 3434 2161 3270 
Q 2425 3106 2569 2803 
L 2575 2803 
Q 2575 2897 2587 3128 
Q 2600 3359 2613 3381 
L 3147 3381 
Q 3128 3213 3128 2681 
L 3128 97 
Q 3128 -1328 1713 -1328 
z
M 2569 1691 
Q 2569 2103 2456 2401 
Q 2344 2700 2139 2858 
Q 1934 3016 1675 3016 
Q 1244 3016 1047 2703 
Q 850 2391 850 1691 
Q 850 997 1034 694 
Q 1219 391 1666 391 
Q 1931 391 2137 547 
Q 2344 703 2456 995 
Q 2569 1288 2569 1691 
z
" transform="scale(0.015625)"/>
       <path id="LiberationSans-20" transform="scale(0.015625)"/>
       <path id="LiberationSans-50" d="M 3931 3078 
Q 3931 2453 3523 2084 
Q 3116 1716 2416 1716 
L 1122 1716 
L 1122 0 
L 525 0 
L 525 4403 
L 2378 4403 
Q 3119 4403 3525 4056 
Q 3931 3709 3931 3078 
z
M 3331 3072 
Q 3331 3925 2306 3925 
L 1122 3925 
L 1122 2188 
L 2331 2188 
Q 3331 2188 3331 3072 
z
" transform="scale(0.015625)"/>
       <path id="LiberationSans-2d" d="M 284 1450 
L 284 1950 
L 1847 1950 
L 1847 1450 
L 284 1450 
z
" transform="scale(0.015625)"/>
       <path id="LiberationSans-43" d="M 2475 3981 
Q 1744 3981 1337 3511 
Q 931 3041 931 2222 
Q 931 1413 1354 920 
Q 1778 428 2500 428 
Q 3425 428 3891 1344 
L 4378 1100 
Q 4106 531 3614 234 
Q 3122 -63 2472 -63 
Q 1806 -63 1320 214 
Q 834 491 579 1005 
Q 325 1519 325 2222 
Q 325 3275 894 3872 
Q 1463 4469 2469 4469 
Q 3172 4469 3644 4194 
Q 4116 3919 4338 3378 
L 3772 3191 
Q 3619 3575 3280 3778 
Q 2941 3981 2475 3981 
z
" transform="scale(0.015625)"/>
       <path id="LiberationSans-73" d="M 2969 934 
Q 2969 456 2608 196 
Q 2247 -63 1597 -63 
Q 966 -63 623 145 
Q 281 353 178 794 
L 675 891 
Q 747 619 972 492 
Q 1197 366 1597 366 
Q 2025 366 2223 497 
Q 2422 628 2422 891 
Q 2422 1091 2284 1216 
Q 2147 1341 1841 1422 
L 1438 1528 
Q 953 1653 748 1773 
Q 544 1894 428 2066 
Q 313 2238 313 2488 
Q 313 2950 642 3192 
Q 972 3434 1603 3434 
Q 2163 3434 2492 3237 
Q 2822 3041 2909 2606 
L 2403 2544 
Q 2356 2769 2151 2889 
Q 1947 3009 1603 3009 
Q 1222 3009 1040 2893 
Q 859 2778 859 2544 
Q 859 2400 934 2306 
Q 1009 2213 1156 2147 
Q 1303 2081 1775 1966 
Q 2222 1853 2419 1758 
Q 2616 1663 2730 1547 
Q 2844 1431 2906 1279 
Q 2969 1128 2969 934 
z
" transform="scale(0.015625)"/>
       <path id="LiberationSans-63" d="M 859 1706 
Q 859 1031 1071 706 
Q 1284 381 1713 381 
Q 2013 381 2214 543 
Q 2416 706 2463 1044 
L 3031 1006 
Q 2966 519 2616 228 
Q 2266 -63 1728 -63 
Q 1019 -63 645 385 
Q 272 834 272 1694 
Q 272 2547 647 2995 
Q 1022 3444 1722 3444 
Q 2241 3444 2583 3175 
Q 2925 2906 3013 2434 
L 2434 2391 
Q 2391 2672 2212 2837 
Q 2034 3003 1706 3003 
Q 1259 3003 1059 2706 
Q 859 2409 859 1706 
z
" transform="scale(0.015625)"/>
       <path id="LiberationSans-75" d="M 981 3381 
L 981 1238 
Q 981 903 1047 718 
Q 1113 534 1256 453 
Q 1400 372 1678 372 
Q 2084 372 2318 650 
Q 2553 928 2553 1422 
L 2553 3381 
L 3116 3381 
L 3116 722 
Q 3116 131 3134 0 
L 2603 0 
Q 2600 16 2597 84 
Q 2594 153 2589 242 
Q 2584 331 2578 578 
L 2569 578 
Q 2375 228 2120 82 
Q 1866 -63 1488 -63 
Q 931 -63 673 214 
Q 416 491 416 1128 
L 416 3381 
L 981 3381 
z
" transform="scale(0.015625)"/>
       <path id="LiberationSans-79" d="M 597 -1328 
Q 366 -1328 209 -1294 
L 209 -872 
Q 328 -891 472 -891 
Q 997 -891 1303 -119 
L 1356 16 
L 16 3381 
L 616 3381 
L 1328 1513 
Q 1344 1469 1366 1408 
Q 1388 1347 1506 1000 
Q 1625 653 1634 613 
L 1853 1228 
L 2594 3381 
L 3188 3381 
L 1888 0 
Q 1678 -541 1497 -805 
Q 1316 -1069 1095 -1198 
Q 875 -1328 597 -1328 
z
" transform="scale(0.015625)"/>
       <path id="LiberationSans-28" d="M 397 1663 
Q 397 2566 680 3284 
Q 963 4003 1550 4638 
L 2094 4638 
Q 1509 3988 1236 3256 
Q 963 2525 963 1656 
Q 963 791 1233 62 
Q 1503 -666 2094 -1325 
L 1550 -1325 
Q 959 -688 678 32 
Q 397 753 397 1650 
L 397 1663 
z
" transform="scale(0.015625)"/>
       <path id="LiberationSans-25" d="M 5463 1356 
Q 5463 684 5209 323 
Q 4956 -38 4463 -38 
Q 3975 -38 3726 314 
Q 3478 666 3478 1356 
Q 3478 2069 3717 2417 
Q 3956 2766 4475 2766 
Q 4988 2766 5225 2408 
Q 5463 2050 5463 1356 
z
M 1647 0 
L 1163 0 
L 4044 4403 
L 4534 4403 
L 1647 0 
z
M 1231 4441 
Q 1728 4441 1968 4091 
Q 2209 3741 2209 3047 
Q 2209 2369 1961 2003 
Q 1713 1638 1219 1638 
Q 725 1638 476 2000 
Q 228 2363 228 3047 
Q 228 3744 468 4092 
Q 709 4441 1231 4441 
z
M 5000 1356 
Q 5000 1916 4879 2167 
Q 4759 2419 4475 2419 
Q 4191 2419 4064 2172 
Q 3938 1925 3938 1356 
Q 3938 822 4061 564 
Q 4184 306 4469 306 
Q 4744 306 4872 567 
Q 5000 828 5000 1356 
z
M 1750 3047 
Q 1750 3597 1631 3850 
Q 1513 4103 1231 4103 
Q 938 4103 813 3854 
Q 688 3606 688 3047 
Q 688 2506 813 2248 
Q 938 1991 1225 1991 
Q 1497 1991 1623 2253 
Q 1750 2516 1750 3047 
z
" transform="scale(0.015625)"/>
       <path id="LiberationSans-29" d="M 1734 1650 
Q 1734 747 1451 28 
Q 1169 -691 581 -1325 
L 38 -1325 
Q 625 -669 897 57 
Q 1169 784 1169 1656 
Q 1169 2528 895 3256 
Q 622 3984 38 4638 
L 581 4638 
Q 1172 4000 1453 3279 
Q 1734 2559 1734 1663 
L 1734 1650 
z
" transform="scale(0.015625)"/>
      </defs>
      <use xlink:href="#LiberationSans-41"/>
      <use xlink:href="#LiberationSans-76" transform="translate(64.949219 0)"/>
      <use xlink:href="#LiberationSans-65" transform="translate(114.949219 0)"/>
      <use xlink:href="#LiberationSans-72" transform="translate(170.564453 0)"/>
      <use xlink:href="#LiberationSans-61" transform="translate(203.865234 0)"/>
      <use xlink:href="#LiberationSans-67" transform="translate(259.480469 0)"/>
      <use xlink:href="#LiberationSans-65" transform="translate(315.095703 0)"/>
      <use xlink:href="#LiberationSans-20" transform="translate(370.710938 0)"/>
      <use xlink:href="#LiberationSans-50" transform="translate(398.494141 0)"/>
      <use xlink:href="#LiberationSans-65" transform="translate(465.193359 0)"/>
      <use xlink:href="#LiberationSans-72" transform="translate(520.808594 0)"/>
      <use xlink:href="#LiberationSans-2d" transform="translate(554.109375 0)"/>
      <use xlink:href="#LiberationSans-43" transform="translate(587.410156 0)"/>
      <use xlink:href="#LiberationSans-6c" transform="translate(659.626953 0)"/>
      <use xlink:href="#LiberationSans-61" transform="translate(681.84375 0)"/>
      <use xlink:href="#LiberationSans-73" transform="translate(737.458984 0)"/>
      <use xlink:href="#LiberationSans-73" transform="translate(787.458984 0)"/>
      <use xlink:href="#LiberationSans-20" transform="translate(837.458984 0)"/>
      <use xlink:href="#LiberationSans-41" transform="translate(859.742188 0)"/>
      <use xlink:href="#LiberationSans-63" transform="translate(926.441406 0)"/>
      <use xlink:href="#LiberationSans-63" transform="translate(976.441406 0)"/>
      <use xlink:href="#LiberationSans-75" transform="translate(1026.441406 0)"/>
      <use xlink:href="#LiberationSans-72" transform="translate(1082.056641 0)"/>
      <use xlink:href="#LiberationSans-61" transform="translate(1115.357422 0)"/>
      <use xlink:href="#LiberationSans-63" transform="translate(1170.972656 0)"/>
      <use xlink:href="#LiberationSans-79" transform="translate(1220.972656 0)"/>
      <use xlink:href="#LiberationSans-20" transform="translate(1270.972656 0)"/>
      <use xlink:href="#LiberationSans-28" transform="translate(1298.755859 0)"/>
      <use xlink:href="#LiberationSans-25" transform="translate(1332.056641 0)"/>
      <use xlink:href="#LiberationSans-29" transform="translate(1420.972656 0)"/>
     </g>
    </g>
   </g>
   <g id="patch_3">
    <path d="M 56.58733 387.735464 
L 109.9172 387.735464 
L 109.9172 226.368379 
L 56.58733 226.368379 
z
" clip-path="url(#pb3ca54bbc0)" style="fill: #4682b4"/>
   </g>
   <g id="patch_4">
    <path d="M 269.90681 387.735464 
L 323.23668 387.735464 
L 323.23668 148.669133 
L 269.90681 148.669133 
z
" clip-path="url(#pb3ca54bbc0)" style="fill: #4682b4"/>
   </g>
   <g id="patch_5">
    <path d="M 109.9172 387.735464 
L 163.24707 387.735464 
L 163.24707 135.656526 
L 109.9172 135.656526 
z
" clip-path="url(#pb3ca54bbc0)" style="fill: #2e8b57"/>
   </g>
   <g id="patch_6">
    <path d="M 323.23668 387.735464 
L 376.56655 387.735464 
L 376.56655 90.381256 
L 323.23668 90.381256 
z
" clip-path="url(#pb3ca54bbc0)" style="fill: #2e8b57"/>
   </g>
   <g id="patch_7">
    <path d="M 163.24707 387.735464 
L 216.57694 387.735464 
L 216.57694 107.426696 
L 163.24707 107.426696 
z
" clip-path="url(#pb3ca54bbc0)" style="fill: #ff6347"/>
   </g>
   <g id="patch_8">
    <path d="M 376.56655 387.735464 
L 429.89642 387.735464 
L 429.89642 81.777879 
L 376.56655 81.777879 
z
" clip-path="url(#pb3ca54bbc0)" style="fill: #ff6347"/>
   </g>
   <g id="patch_9">
    <path d="M 37.921875 387.735464 
L 37.921875 66.48 
" style="fill: none"/>
   </g>
   <g id="patch_10">
    <path d="M 448.561875 387.735464 
L 448.561875 66.48 
" style="fill: none"/>
   </g>
   <g id="patch_11">
    <path d="M 37.921875 387.735464 
L 448.561875 387.735464 
" style="fill: none"/>
   </g>
   <g id="patch_12">
    <path d="M 37.921875 66.48 
L 448.561875 66.48 
" style="fill: none"/>
   </g>
   <g id="text_10">
    <!-- 0.50 -->
    <g style="fill: #262626" transform="translate(76.440936 221.915879) scale(0.07 -0.07)">
     <defs>
      <path id="LiberationSans-35" d="M 3291 1434 
Q 3291 738 2877 337 
Q 2463 -63 1728 -63 
Q 1113 -63 734 206 
Q 356 475 256 984 
L 825 1050 
Q 1003 397 1741 397 
Q 2194 397 2450 670 
Q 2706 944 2706 1422 
Q 2706 1838 2448 2094 
Q 2191 2350 1753 2350 
Q 1525 2350 1328 2278 
Q 1131 2206 934 2034 
L 384 2034 
L 531 4403 
L 3034 4403 
L 3034 3925 
L 1044 3925 
L 959 2528 
Q 1325 2809 1869 2809 
Q 2519 2809 2905 2428 
Q 3291 2047 3291 1434 
z
" transform="scale(0.015625)"/>
     </defs>
     <use xlink:href="#LiberationSans-30"/>
     <use xlink:href="#LiberationSans-2e" transform="translate(55.615234 0)"/>
     <use xlink:href="#LiberationSans-35" transform="translate(83.398438 0)"/>
     <use xlink:href="#LiberationSans-30" transform="translate(139.013672 0)"/>
    </g>
   </g>
   <g id="text_11">
    <!-- 0.74 -->
    <g style="fill: #262626" transform="translate(289.760417 144.216633) scale(0.07 -0.07)">
     <defs>
      <path id="LiberationSans-37" d="M 3238 3947 
Q 2563 2916 2284 2331 
Q 2006 1747 1867 1178 
Q 1728 609 1728 0 
L 1141 0 
Q 1141 844 1498 1776 
Q 1856 2709 2694 3925 
L 328 3925 
L 328 4403 
L 3238 4403 
L 3238 3947 
z
" transform="scale(0.015625)"/>
     </defs>
     <use xlink:href="#LiberationSans-30"/>
     <use xlink:href="#LiberationSans-2e" transform="translate(55.615234 0)"/>
     <use xlink:href="#LiberationSans-37" transform="translate(83.398438 0)"/>
     <use xlink:href="#LiberationSans-34" transform="translate(139.013672 0)"/>
    </g>
   </g>
   <g id="text_12">
    <!-- 0.78 -->
    <g style="fill: #262626" transform="translate(129.770807 131.204026) scale(0.07 -0.07)">
     <use xlink:href="#LiberationSans-30"/>
     <use xlink:href="#LiberationSans-2e" transform="translate(55.615234 0)"/>
     <use xlink:href="#LiberationSans-37" transform="translate(83.398438 0)"/>
     <use xlink:href="#LiberationSans-38" transform="translate(139.013672 0)"/>
    </g>
   </g>
   <g id="text_13">
    <!-- 0.92 -->
    <g style="fill: #262626" transform="translate(343.090287 85.928756) scale(0.07 -0.07)">
     <defs>
      <path id="LiberationSans-39" d="M 3256 2291 
Q 3256 1156 2842 546 
Q 2428 -63 1663 -63 
Q 1147 -63 836 154 
Q 525 372 391 856 
L 928 941 
Q 1097 391 1672 391 
Q 2156 391 2422 841 
Q 2688 1291 2700 2125 
Q 2575 1844 2272 1673 
Q 1969 1503 1606 1503 
Q 1013 1503 656 1909 
Q 300 2316 300 2988 
Q 300 3678 687 4073 
Q 1075 4469 1766 4469 
Q 2500 4469 2878 3925 
Q 3256 3381 3256 2291 
z
M 2644 2834 
Q 2644 3366 2400 3689 
Q 2156 4013 1747 4013 
Q 1341 4013 1106 3736 
Q 872 3459 872 2988 
Q 872 2506 1106 2226 
Q 1341 1947 1741 1947 
Q 1984 1947 2193 2058 
Q 2403 2169 2523 2372 
Q 2644 2575 2644 2834 
z
" transform="scale(0.015625)"/>
     </defs>
     <use xlink:href="#LiberationSans-30"/>
     <use xlink:href="#LiberationSans-2e" transform="translate(55.615234 0)"/>
     <use xlink:href="#LiberationSans-39" transform="translate(83.398438 0)"/>
     <use xlink:href="#LiberationSans-32" transform="translate(139.013672 0)"/>
    </g>
   </g>
   <g id="text_14">
    <!-- 0.87 -->
    <g style="fill: #262626" transform="translate(183.100677 102.974196) scale(0.07 -0.07)">
     <use xlink:href="#LiberationSans-30"/>
     <use xlink:href="#LiberationSans-2e" transform="translate(55.615234 0)"/>
     <use xlink:href="#LiberationSans-38" transform="translate(83.398438 0)"/>
     <use xlink:href="#LiberationSans-37" transform="translate(139.013672 0)"/>
    </g>
   </g>
   <g id="text_15">
    <!-- 0.95 -->
    <g style="fill: #262626" transform="translate(396.420157 77.325379) scale(0.07 -0.07)">
     <use xlink:href="#LiberationSans-30"/>
     <use xlink:href="#LiberationSans-2e" transform="translate(55.615234 0)"/>
     <use xlink:href="#LiberationSans-39" transform="translate(83.398438 0)"/>
     <use xlink:href="#LiberationSans-35" transform="translate(139.013672 0)"/>
    </g>
   </g>
   <g id="text_16">
    <!-- asl100 -->
    <g style="fill: #262626" transform="translate(223.363047 60.48) scale(0.13 -0.13)">
     <defs>
      <path id="LiberationSans-Bold-61" d="M 1228 -63 
Q 738 -63 463 204 
Q 188 472 188 956 
Q 188 1481 530 1756 
Q 872 2031 1522 2038 
L 2250 2050 
L 2250 2222 
Q 2250 2553 2134 2714 
Q 2019 2875 1756 2875 
Q 1513 2875 1398 2764 
Q 1284 2653 1256 2397 
L 341 2441 
Q 425 2934 792 3189 
Q 1159 3444 1794 3444 
Q 2434 3444 2781 3128 
Q 3128 2813 3128 2231 
L 3128 1000 
Q 3128 716 3192 608 
Q 3256 500 3406 500 
Q 3506 500 3600 519 
L 3600 44 
Q 3522 25 3459 9 
Q 3397 -6 3334 -15 
Q 3272 -25 3201 -31 
Q 3131 -38 3038 -38 
Q 2706 -38 2548 125 
Q 2391 288 2359 603 
L 2341 603 
Q 1972 -63 1228 -63 
z
M 2250 1566 
L 1800 1559 
Q 1494 1547 1366 1492 
Q 1238 1438 1170 1325 
Q 1103 1213 1103 1025 
Q 1103 784 1214 667 
Q 1325 550 1509 550 
Q 1716 550 1886 662 
Q 2056 775 2153 973 
Q 2250 1172 2250 1394 
L 2250 1566 
z
" transform="scale(0.015625)"/>
      <path id="LiberationSans-Bold-73" d="M 3297 988 
Q 3297 497 2895 217 
Q 2494 -63 1784 -63 
Q 1088 -63 717 157 
Q 347 378 225 844 
L 997 959 
Q 1063 719 1223 619 
Q 1384 519 1784 519 
Q 2153 519 2322 612 
Q 2491 706 2491 906 
Q 2491 1069 2355 1164 
Q 2219 1259 1894 1325 
Q 1150 1472 890 1598 
Q 631 1725 495 1926 
Q 359 2128 359 2422 
Q 359 2906 732 3176 
Q 1106 3447 1791 3447 
Q 2394 3447 2761 3212 
Q 3128 2978 3219 2534 
L 2441 2453 
Q 2403 2659 2256 2761 
Q 2109 2863 1791 2863 
Q 1478 2863 1322 2783 
Q 1166 2703 1166 2516 
Q 1166 2369 1286 2283 
Q 1406 2197 1691 2141 
Q 2088 2059 2395 1973 
Q 2703 1888 2889 1769 
Q 3075 1650 3186 1464 
Q 3297 1278 3297 988 
z
" transform="scale(0.015625)"/>
      <path id="LiberationSans-Bold-6c" d="M 447 0 
L 447 4638 
L 1325 4638 
L 1325 0 
L 447 0 
z
" transform="scale(0.015625)"/>
      <path id="LiberationSans-Bold-31" d="M 403 0 
L 403 653 
L 1494 653 
L 1494 3656 
L 438 2997 
L 438 3688 
L 1541 4403 
L 2372 4403 
L 2372 653 
L 3381 653 
L 3381 0 
L 403 0 
z
" transform="scale(0.015625)"/>
      <path id="LiberationSans-Bold-30" d="M 3297 2203 
Q 3297 1088 2914 512 
Q 2531 -63 1766 -63 
Q 253 -63 253 2203 
Q 253 2994 418 3494 
Q 584 3994 915 4231 
Q 1247 4469 1791 4469 
Q 2572 4469 2934 3903 
Q 3297 3338 3297 2203 
z
M 2416 2203 
Q 2416 2813 2356 3150 
Q 2297 3488 2165 3634 
Q 2034 3781 1784 3781 
Q 1519 3781 1383 3632 
Q 1247 3484 1189 3148 
Q 1131 2813 1131 2203 
Q 1131 1600 1192 1261 
Q 1253 922 1386 775 
Q 1519 628 1772 628 
Q 2022 628 2158 783 
Q 2294 938 2355 1278 
Q 2416 1619 2416 2203 
z
" transform="scale(0.015625)"/>
     </defs>
     <use xlink:href="#LiberationSans-Bold-61"/>
     <use xlink:href="#LiberationSans-Bold-73" transform="translate(55.615234 0)"/>
     <use xlink:href="#LiberationSans-Bold-6c" transform="translate(111.230469 0)"/>
     <use xlink:href="#LiberationSans-Bold-31" transform="translate(139.013672 0)"/>
     <use xlink:href="#LiberationSans-Bold-30" transform="translate(194.628906 0)"/>
     <use xlink:href="#LiberationSans-Bold-30" transform="translate(250.244141 0)"/>
    </g>
   </g>
  </g>
  <g id="axes_2">
   <g id="patch_13">
    <path d="M 459.361875 387.735464 
L 870.001875 387.735464 
L 870.001875 66.48 
L 459.361875 66.48 
z
" style="fill: #eaeaf2"/>
   </g>
   <g id="matplotlib.axis_3">
    <g id="xtick_3">
     <g id="line2d_15">
      <path d="M 558.022135 387.735464 
L 558.022135 66.48 
" clip-path="url(#p6580d6c413)" style="fill: none; stroke: #ffffff; stroke-width: 0.8; stroke-linecap: round"/>
     </g>
     <g id="line2d_16"/>
     <g id="text_17">
      <!-- MViTv2_S -->
      <g style="fill: #262626" transform="translate(517.193474 420.484879) rotate(-30) scale(0.1 -0.1)">
       <use xlink:href="#LiberationSans-4d"/>
       <use xlink:href="#LiberationSans-56" transform="translate(83.300781 0)"/>
       <use xlink:href="#LiberationSans-69" transform="translate(148.25 0)"/>
       <use xlink:href="#LiberationSans-54" transform="translate(170.466797 0)"/>
       <use xlink:href="#LiberationSans-76" transform="translate(231.550781 0)"/>
       <use xlink:href="#LiberationSans-32" transform="translate(281.550781 0)"/>
       <use xlink:href="#LiberationSans-5f" transform="translate(337.166016 0)"/>
       <use xlink:href="#LiberationSans-53" transform="translate(392.78125 0)"/>
      </g>
     </g>
    </g>
    <g id="xtick_4">
     <g id="line2d_17">
      <path d="M 771.341615 387.735464 
L 771.341615 66.48 
" clip-path="url(#p6580d6c413)" style="fill: none; stroke: #ffffff; stroke-width: 0.8; stroke-linecap: round"/>
     </g>
     <g id="line2d_18"/>
     <g id="text_18">
      <!-- S3D -->
      <g style="fill: #262626" transform="translate(753.457215 407.238004) rotate(-30) scale(0.1 -0.1)">
       <use xlink:href="#LiberationSans-53"/>
       <use xlink:href="#LiberationSans-33" transform="translate(66.699219 0)"/>
       <use xlink:href="#LiberationSans-44" transform="translate(122.314453 0)"/>
      </g>
     </g>
    </g>
    <g id="text_19">
     <!-- Model -->
     <g style="fill: #262626" transform="translate(651.064688 433.528757) scale(0.1 -0.1)">
      <use xlink:href="#LiberationSans-4d"/>
      <use xlink:href="#LiberationSans-6f" transform="translate(83.300781 0)"/>
      <use xlink:href="#LiberationSans-64" transform="translate(138.916016 0)"/>
      <use xlink:href="#LiberationSans-65" transform="translate(194.53125 0)"/>
      <use xlink:href="#LiberationSans-6c" transform="translate(250.146484 0)"/>
     </g>
    </g>
   </g>
   <g id="matplotlib.axis_4">
    <g id="ytick_6">
     <g id="line2d_19">
      <path d="M 459.361875 387.735464 
L 870.001875 387.735464 
" clip-path="url(#p6580d6c413)" style="fill: none; stroke-dasharray: 2.96,1.28; stroke-dashoffset: 0; stroke: #ffffff; stroke-opacity: 0.7; stroke-width: 0.8"/>
     </g>
     <g id="line2d_20"/>
    </g>
    <g id="ytick_7">
     <g id="line2d_21">
      <path d="M 459.361875 323.210139 
L 870.001875 323.210139 
" clip-path="url(#p6580d6c413)" style="fill: none; stroke-dasharray: 2.96,1.28; stroke-dashoffset: 0; stroke: #ffffff; stroke-opacity: 0.7; stroke-width: 0.8"/>
     </g>
     <g id="line2d_22"/>
    </g>
    <g id="ytick_8">
     <g id="line2d_23">
      <path d="M 459.361875 258.684813 
L 870.001875 258.684813 
" clip-path="url(#p6580d6c413)" style="fill: none; stroke-dasharray: 2.96,1.28; stroke-dashoffset: 0; stroke: #ffffff; stroke-opacity: 0.7; stroke-width: 0.8"/>
     </g>
     <g id="line2d_24"/>
    </g>
    <g id="ytick_9">
     <g id="line2d_25">
      <path d="M 459.361875 194.159488 
L 870.001875 194.159488 
" clip-path="url(#p6580d6c413)" style="fill: none; stroke-dasharray: 2.96,1.28; stroke-dashoffset: 0; stroke: #ffffff; stroke-opacity: 0.7; stroke-width: 0.8"/>
     </g>
     <g id="line2d_26"/>
    </g>
    <g id="ytick_10">
     <g id="line2d_27">
      <path d="M 459.361875 129.634162 
L 870.001875 129.634162 
" clip-path="url(#p6580d6c413)" style="fill: none; stroke-dasharray: 2.96,1.28; stroke-dashoffset: 0; stroke: #ffffff; stroke-opacity: 0.7; stroke-width: 0.8"/>
     </g>
     <g id="line2d_28"/>
    </g>
   </g>
   <g id="patch_14">
    <path d="M 478.02733 387.735464 
L 531.3572 387.735464 
L 531.3572 173.923629 
L 478.02733 173.923629 
z
" clip-path="url(#p6580d6c413)" style="fill: #4682b4"/>
   </g>
   <g id="patch_15">
    <path d="M 691.34681 387.735464 
L 744.67668 387.735464 
L 744.67668 218.42818 
L 691.34681 218.42818 
z
" clip-path="url(#p6580d6c413)" style="fill: #4682b4"/>
   </g>
   <g id="patch_16">
    <path d="M 531.3572 387.735464 
L 584.68707 387.735464 
L 584.68707 99.916665 
L 531.3572 99.916665 
z
" clip-path="url(#p6580d6c413)" style="fill: #2e8b57"/>
   </g>
   <g id="patch_17">
    <path d="M 744.67668 387.735464 
L 798.00655 387.735464 
L 798.00655 133.971698 
L 744.67668 133.971698 
z
" clip-path="url(#p6580d6c413)" style="fill: #2e8b57"/>
   </g>
   <g id="patch_18">
    <path d="M 584.68707 387.735464 
L 638.01694 387.735464 
L 638.01694 85.452238 
L 584.68707 85.452238 
z
" clip-path="url(#p6580d6c413)" style="fill: #ff6347"/>
   </g>
   <g id="patch_19">
    <path d="M 798.00655 387.735464 
L 851.33642 387.735464 
L 851.33642 106.279579 
L 798.00655 106.279579 
z
" clip-path="url(#p6580d6c413)" style="fill: #ff6347"/>
   </g>
   <g id="patch_20">
    <path d="M 459.361875 387.735464 
L 459.361875 66.48 
" style="fill: none"/>
   </g>
   <g id="patch_21">
    <path d="M 870.001875 387.735464 
L 870.001875 66.48 
" style="fill: none"/>
   </g>
   <g id="patch_22">
    <path d="M 459.361875 387.735464 
L 870.001875 387.735464 
" style="fill: none"/>
   </g>
   <g id="patch_23">
    <path d="M 459.361875 66.48 
L 870.001875 66.48 
" style="fill: none"/>
   </g>
   <g id="text_20">
    <!-- 0.66 -->
    <g style="fill: #262626" transform="translate(497.880936 169.471129) scale(0.07 -0.07)">
     <use xlink:href="#LiberationSans-30"/>
     <use xlink:href="#LiberationSans-2e" transform="translate(55.615234 0)"/>
     <use xlink:href="#LiberationSans-36" transform="translate(83.398438 0)"/>
     <use xlink:href="#LiberationSans-36" transform="translate(139.013672 0)"/>
    </g>
   </g>
   <g id="text_21">
    <!-- 0.52 -->
    <g style="fill: #262626" transform="translate(711.200417 213.97568) scale(0.07 -0.07)">
     <use xlink:href="#LiberationSans-30"/>
     <use xlink:href="#LiberationSans-2e" transform="translate(55.615234 0)"/>
     <use xlink:href="#LiberationSans-35" transform="translate(83.398438 0)"/>
     <use xlink:href="#LiberationSans-32" transform="translate(139.013672 0)"/>
    </g>
   </g>
   <g id="text_22">
    <!-- 0.89 -->
    <g style="fill: #262626" transform="translate(551.210807 95.464165) scale(0.07 -0.07)">
     <use xlink:href="#LiberationSans-30"/>
     <use xlink:href="#LiberationSans-2e" transform="translate(55.615234 0)"/>
     <use xlink:href="#LiberationSans-38" transform="translate(83.398438 0)"/>
     <use xlink:href="#LiberationSans-39" transform="translate(139.013672 0)"/>
    </g>
   </g>
   <g id="text_23">
    <!-- 0.79 -->
    <g style="fill: #262626" transform="translate(764.530287 129.519198) scale(0.07 -0.07)">
     <use xlink:href="#LiberationSans-30"/>
     <use xlink:href="#LiberationSans-2e" transform="translate(55.615234 0)"/>
     <use xlink:href="#LiberationSans-37" transform="translate(83.398438 0)"/>
     <use xlink:href="#LiberationSans-39" transform="translate(139.013672 0)"/>
    </g>
   </g>
   <g id="text_24">
    <!-- 0.94 -->
    <g style="fill: #262626" transform="translate(604.540677 80.999738) scale(0.07 -0.07)">
     <use xlink:href="#LiberationSans-30"/>
     <use xlink:href="#LiberationSans-2e" transform="translate(55.615234 0)"/>
     <use xlink:href="#LiberationSans-39" transform="translate(83.398438 0)"/>
     <use xlink:href="#LiberationSans-34" transform="translate(139.013672 0)"/>
    </g>
   </g>
   <g id="text_25">
    <!-- 0.87 -->
    <g style="fill: #262626" transform="translate(817.860157 101.827079) scale(0.07 -0.07)">
     <use xlink:href="#LiberationSans-30"/>
     <use xlink:href="#LiberationSans-2e" transform="translate(55.615234 0)"/>
     <use xlink:href="#LiberationSans-38" transform="translate(83.398438 0)"/>
     <use xlink:href="#LiberationSans-37" transform="translate(139.013672 0)"/>
    </g>
   </g>
   <g id="text_26">
    <!-- asl300 -->
    <g style="fill: #262626" transform="translate(644.803047 60.48) scale(0.13 -0.13)">
     <defs>
      <path id="LiberationSans-Bold-33" d="M 3328 1222 
Q 3328 603 2922 265 
Q 2516 -72 1766 -72 
Q 1056 -72 637 254 
Q 219 581 147 1197 
L 1041 1275 
Q 1125 641 1763 641 
Q 2078 641 2253 797 
Q 2428 953 2428 1275 
Q 2428 1569 2215 1725 
Q 2003 1881 1584 1881 
L 1278 1881 
L 1278 2591 
L 1566 2591 
Q 1944 2591 2134 2745 
Q 2325 2900 2325 3188 
Q 2325 3459 2173 3614 
Q 2022 3769 1731 3769 
Q 1459 3769 1292 3619 
Q 1125 3469 1100 3194 
L 222 3256 
Q 291 3825 694 4147 
Q 1097 4469 1747 4469 
Q 2438 4469 2827 4158 
Q 3216 3847 3216 3297 
Q 3216 2884 2973 2618 
Q 2731 2353 2275 2266 
L 2275 2253 
Q 2781 2194 3054 1920 
Q 3328 1647 3328 1222 
z
" transform="scale(0.015625)"/>
     </defs>
     <use xlink:href="#LiberationSans-Bold-61"/>
     <use xlink:href="#LiberationSans-Bold-73" transform="translate(55.615234 0)"/>
     <use xlink:href="#LiberationSans-Bold-6c" transform="translate(111.230469 0)"/>
     <use xlink:href="#LiberationSans-Bold-33" transform="translate(139.013672 0)"/>
     <use xlink:href="#LiberationSans-Bold-30" transform="translate(194.628906 0)"/>
     <use xlink:href="#LiberationSans-Bold-30" transform="translate(250.244141 0)"/>
    </g>
   </g>
  </g>
  <g id="axes_3">
   <g id="patch_24">
    <path d="M 880.801875 387.735464 
L 1291.441875 387.735464 
L 1291.441875 66.48 
L 880.801875 66.48 
z
" style="fill: #eaeaf2"/>
   </g>
   <g id="matplotlib.axis_5">
    <g id="xtick_5">
     <g id="line2d_29">
      <path d="M 979.462135 387.735464 
L 979.462135 66.48 
" clip-path="url(#p68907a3712)" style="fill: none; stroke: #ffffff; stroke-width: 0.8; stroke-linecap: round"/>
     </g>
     <g id="line2d_30"/>
     <g id="text_27">
      <!-- MViTv2_S -->
      <g style="fill: #262626" transform="translate(938.633474 420.484879) rotate(-30) scale(0.1 -0.1)">
       <use xlink:href="#LiberationSans-4d"/>
       <use xlink:href="#LiberationSans-56" transform="translate(83.300781 0)"/>
       <use xlink:href="#LiberationSans-69" transform="translate(148.25 0)"/>
       <use xlink:href="#LiberationSans-54" transform="translate(170.466797 0)"/>
       <use xlink:href="#LiberationSans-76" transform="translate(231.550781 0)"/>
       <use xlink:href="#LiberationSans-32" transform="translate(281.550781 0)"/>
       <use xlink:href="#LiberationSans-5f" transform="translate(337.166016 0)"/>
       <use xlink:href="#LiberationSans-53" transform="translate(392.78125 0)"/>
      </g>
     </g>
    </g>
    <g id="xtick_6">
     <g id="line2d_31">
      <path d="M 1192.781615 387.735464 
L 1192.781615 66.48 
" clip-path="url(#p68907a3712)" style="fill: none; stroke: #ffffff; stroke-width: 0.8; stroke-linecap: round"/>
     </g>
     <g id="line2d_32"/>
     <g id="text_28">
      <!-- S3D -->
      <g style="fill: #262626" transform="translate(1174.897215 407.238004) rotate(-30) scale(0.1 -0.1)">
       <use xlink:href="#LiberationSans-53"/>
       <use xlink:href="#LiberationSans-33" transform="translate(66.699219 0)"/>
       <use xlink:href="#LiberationSans-44" transform="translate(122.314453 0)"/>
      </g>
     </g>
    </g>
    <g id="text_29">
     <!-- Model -->
     <g style="fill: #262626" transform="translate(1072.504688 433.528757) scale(0.1 -0.1)">
      <use xlink:href="#LiberationSans-4d"/>
      <use xlink:href="#LiberationSans-6f" transform="translate(83.300781 0)"/>
      <use xlink:href="#LiberationSans-64" transform="translate(138.916016 0)"/>
      <use xlink:href="#LiberationSans-65" transform="translate(194.53125 0)"/>
      <use xlink:href="#LiberationSans-6c" transform="translate(250.146484 0)"/>
     </g>
    </g>
   </g>
   <g id="matplotlib.axis_6">
    <g id="ytick_11">
     <g id="line2d_33">
      <path d="M 880.801875 387.735464 
L 1291.441875 387.735464 
" clip-path="url(#p68907a3712)" style="fill: none; stroke-dasharray: 2.96,1.28; stroke-dashoffset: 0; stroke: #ffffff; stroke-opacity: 0.7; stroke-width: 0.8"/>
     </g>
     <g id="line2d_34"/>
    </g>
    <g id="ytick_12">
     <g id="line2d_35">
      <path d="M 880.801875 323.210139 
L 1291.441875 323.210139 
" clip-path="url(#p68907a3712)" style="fill: none; stroke-dasharray: 2.96,1.28; stroke-dashoffset: 0; stroke: #ffffff; stroke-opacity: 0.7; stroke-width: 0.8"/>
     </g>
     <g id="line2d_36"/>
    </g>
    <g id="ytick_13">
     <g id="line2d_37">
      <path d="M 880.801875 258.684813 
L 1291.441875 258.684813 
" clip-path="url(#p68907a3712)" style="fill: none; stroke-dasharray: 2.96,1.28; stroke-dashoffset: 0; stroke: #ffffff; stroke-opacity: 0.7; stroke-width: 0.8"/>
     </g>
     <g id="line2d_38"/>
    </g>
    <g id="ytick_14">
     <g id="line2d_39">
      <path d="M 880.801875 194.159488 
L 1291.441875 194.159488 
" clip-path="url(#p68907a3712)" style="fill: none; stroke-dasharray: 2.96,1.28; stroke-dashoffset: 0; stroke: #ffffff; stroke-opacity: 0.7; stroke-width: 0.8"/>
     </g>
     <g id="line2d_40"/>
    </g>
    <g id="ytick_15">
     <g id="line2d_41">
      <path d="M 880.801875 129.634162 
L 1291.441875 129.634162 
" clip-path="url(#p68907a3712)" style="fill: none; stroke-dasharray: 2.96,1.28; stroke-dashoffset: 0; stroke: #ffffff; stroke-opacity: 0.7; stroke-width: 0.8"/>
     </g>
     <g id="line2d_42"/>
    </g>
   </g>
   <g id="patch_25">
    <path d="M 899.46733 387.735464 
L 952.7972 387.735464 
L 952.7972 215.732455 
L 899.46733 215.732455 
z
" clip-path="url(#p68907a3712)" style="fill: #4682b4"/>
   </g>
   <g id="patch_26">
    <path d="M 1112.78681 387.735464 
L 1166.11668 387.735464 
L 1166.11668 270.557473 
L 1112.78681 270.557473 
z
" clip-path="url(#p68907a3712)" style="fill: #4682b4"/>
   </g>
   <g id="patch_27">
    <path d="M 952.7972 387.735464 
L 1006.12707 387.735464 
L 1006.12707 124.095738 
L 952.7972 124.095738 
z
" clip-path="url(#p68907a3712)" style="fill: #2e8b57"/>
   </g>
   <g id="patch_28">
    <path d="M 1166.11668 387.735464 
L 1219.44655 387.735464 
L 1219.44655 168.935463 
L 1166.11668 168.935463 
z
" clip-path="url(#p68907a3712)" style="fill: #2e8b57"/>
   </g>
   <g id="patch_29">
    <path d="M 1006.12707 387.735464 
L 1059.45694 387.735464 
L 1059.45694 104.630599 
L 1006.12707 104.630599 
z
" clip-path="url(#p68907a3712)" style="fill: #ff6347"/>
   </g>
   <g id="patch_30">
    <path d="M 1219.44655 387.735464 
L 1272.77642 387.735464 
L 1272.77642 139.581817 
L 1219.44655 139.581817 
z
" clip-path="url(#p68907a3712)" style="fill: #ff6347"/>
   </g>
   <g id="patch_31">
    <path d="M 880.801875 387.735464 
L 880.801875 66.48 
" style="fill: none"/>
   </g>
   <g id="patch_32">
    <path d="M 1291.441875 387.735464 
L 1291.441875 66.48 
" style="fill: none"/>
   </g>
   <g id="patch_33">
    <path d="M 880.801875 387.735464 
L 1291.441875 387.735464 
" style="fill: none"/>
   </g>
   <g id="patch_34">
    <path d="M 880.801875 66.48 
L 1291.441875 66.48 
" style="fill: none"/>
   </g>
   <g id="text_30">
    <!-- 0.53 -->
    <g style="fill: #262626" transform="translate(919.320936 211.279955) scale(0.07 -0.07)">
     <use xlink:href="#LiberationSans-30"/>
     <use xlink:href="#LiberationSans-2e" transform="translate(55.615234 0)"/>
     <use xlink:href="#LiberationSans-35" transform="translate(83.398438 0)"/>
     <use xlink:href="#LiberationSans-33" transform="translate(139.013672 0)"/>
    </g>
   </g>
   <g id="text_31">
    <!-- 0.36 -->
    <g style="fill: #262626" transform="translate(1132.640417 266.104973) scale(0.07 -0.07)">
     <use xlink:href="#LiberationSans-30"/>
     <use xlink:href="#LiberationSans-2e" transform="translate(55.615234 0)"/>
     <use xlink:href="#LiberationSans-33" transform="translate(83.398438 0)"/>
     <use xlink:href="#LiberationSans-36" transform="translate(139.013672 0)"/>
    </g>
   </g>
   <g id="text_32">
    <!-- 0.82 -->
    <g style="fill: #262626" transform="translate(972.650807 119.643238) scale(0.07 -0.07)">
     <use xlink:href="#LiberationSans-30"/>
     <use xlink:href="#LiberationSans-2e" transform="translate(55.615234 0)"/>
     <use xlink:href="#LiberationSans-38" transform="translate(83.398438 0)"/>
     <use xlink:href="#LiberationSans-32" transform="translate(139.013672 0)"/>
    </g>
   </g>
   <g id="text_33">
    <!-- 0.68 -->
    <g style="fill: #262626" transform="translate(1185.970287 164.482963) scale(0.07 -0.07)">
     <use xlink:href="#LiberationSans-30"/>
     <use xlink:href="#LiberationSans-2e" transform="translate(55.615234 0)"/>
     <use xlink:href="#LiberationSans-36" transform="translate(83.398438 0)"/>
     <use xlink:href="#LiberationSans-38" transform="translate(139.013672 0)"/>
    </g>
   </g>
   <g id="text_34">
    <!-- 0.88 -->
    <g style="fill: #262626" transform="translate(1025.980677 100.178099) scale(0.07 -0.07)">
     <use xlink:href="#LiberationSans-30"/>
     <use xlink:href="#LiberationSans-2e" transform="translate(55.615234 0)"/>
     <use xlink:href="#LiberationSans-38" transform="translate(83.398438 0)"/>
     <use xlink:href="#LiberationSans-38" transform="translate(139.013672 0)"/>
    </g>
   </g>
   <g id="text_35">
    <!-- 0.77 -->
    <g style="fill: #262626" transform="translate(1239.300157 135.129317) scale(0.07 -0.07)">
     <use xlink:href="#LiberationSans-30"/>
     <use xlink:href="#LiberationSans-2e" transform="translate(55.615234 0)"/>
     <use xlink:href="#LiberationSans-37" transform="translate(83.398438 0)"/>
     <use xlink:href="#LiberationSans-37" transform="translate(139.013672 0)"/>
    </g>
   </g>
   <g id="text_36">
    <!-- asl1000 -->
    <g style="fill: #262626" transform="translate(1062.628438 60.48) scale(0.13 -0.13)">
     <use xlink:href="#LiberationSans-Bold-61"/>
     <use xlink:href="#LiberationSans-Bold-73" transform="translate(55.615234 0)"/>
     <use xlink:href="#LiberationSans-Bold-6c" transform="translate(111.230469 0)"/>
     <use xlink:href="#LiberationSans-Bold-31" transform="translate(139.013672 0)"/>
     <use xlink:href="#LiberationSans-Bold-30" transform="translate(194.628906 0)"/>
     <use xlink:href="#LiberationSans-Bold-30" transform="translate(250.244141 0)"/>
     <use xlink:href="#LiberationSans-Bold-30" transform="translate(305.859375 0)"/>
    </g>
   </g>
  </g>
  <g id="axes_4">
   <g id="patch_35">
    <path d="M 1302.241875 387.735464 
L 1712.881875 387.735464 
L 1712.881875 66.48 
L 1302.241875 66.48 
z
" style="fill: #eaeaf2"/>
   </g>
   <g id="matplotlib.axis_7">
    <g id="xtick_7">
     <g id="line2d_43">
      <path d="M 1400.902135 387.735464 
L 1400.902135 66.48 
" clip-path="url(#pcdd1012a45)" style="fill: none; stroke: #ffffff; stroke-width: 0.8; stroke-linecap: round"/>
     </g>
     <g id="line2d_44"/>
     <g id="text_37">
      <!-- S3D -->
      <g style="fill: #262626" transform="translate(1383.017734 407.238004) rotate(-30) scale(0.1 -0.1)">
       <use xlink:href="#LiberationSans-53"/>
       <use xlink:href="#LiberationSans-33" transform="translate(66.699219 0)"/>
       <use xlink:href="#LiberationSans-44" transform="translate(122.314453 0)"/>
      </g>
     </g>
    </g>
    <g id="xtick_8">
     <g id="line2d_45">
      <path d="M 1614.221615 387.735464 
L 1614.221615 66.48 
" clip-path="url(#pcdd1012a45)" style="fill: none; stroke: #ffffff; stroke-width: 0.8; stroke-linecap: round"/>
     </g>
     <g id="line2d_46"/>
     <g id="text_38">
      <!-- MViTv2_S -->
      <g style="fill: #262626" transform="translate(1573.392954 420.484879) rotate(-30) scale(0.1 -0.1)">
       <use xlink:href="#LiberationSans-4d"/>
       <use xlink:href="#LiberationSans-56" transform="translate(83.300781 0)"/>
       <use xlink:href="#LiberationSans-69" transform="translate(148.25 0)"/>
       <use xlink:href="#LiberationSans-54" transform="translate(170.466797 0)"/>
       <use xlink:href="#LiberationSans-76" transform="translate(231.550781 0)"/>
       <use xlink:href="#LiberationSans-32" transform="translate(281.550781 0)"/>
       <use xlink:href="#LiberationSans-5f" transform="translate(337.166016 0)"/>
       <use xlink:href="#LiberationSans-53" transform="translate(392.78125 0)"/>
      </g>
     </g>
    </g>
    <g id="text_39">
     <!-- Model -->
     <g style="fill: #262626" transform="translate(1493.944688 433.528757) scale(0.1 -0.1)">
      <use xlink:href="#LiberationSans-4d"/>
      <use xlink:href="#LiberationSans-6f" transform="translate(83.300781 0)"/>
      <use xlink:href="#LiberationSans-64" transform="translate(138.916016 0)"/>
      <use xlink:href="#LiberationSans-65" transform="translate(194.53125 0)"/>
      <use xlink:href="#LiberationSans-6c" transform="translate(250.146484 0)"/>
     </g>
    </g>
   </g>
   <g id="matplotlib.axis_8">
    <g id="ytick_16">
     <g id="line2d_47">
      <path d="M 1302.241875 387.735464 
L 1712.881875 387.735464 
" clip-path="url(#pcdd1012a45)" style="fill: none; stroke-dasharray: 2.96,1.28; stroke-dashoffset: 0; stroke: #ffffff; stroke-opacity: 0.7; stroke-width: 0.8"/>
     </g>
     <g id="line2d_48"/>
    </g>
    <g id="ytick_17">
     <g id="line2d_49">
      <path d="M 1302.241875 323.210139 
L 1712.881875 323.210139 
" clip-path="url(#pcdd1012a45)" style="fill: none; stroke-dasharray: 2.96,1.28; stroke-dashoffset: 0; stroke: #ffffff; stroke-opacity: 0.7; stroke-width: 0.8"/>
     </g>
     <g id="line2d_50"/>
    </g>
    <g id="ytick_18">
     <g id="line2d_51">
      <path d="M 1302.241875 258.684813 
L 1712.881875 258.684813 
" clip-path="url(#pcdd1012a45)" style="fill: none; stroke-dasharray: 2.96,1.28; stroke-dashoffset: 0; stroke: #ffffff; stroke-opacity: 0.7; stroke-width: 0.8"/>
     </g>
     <g id="line2d_52"/>
    </g>
    <g id="ytick_19">
     <g id="line2d_53">
      <path d="M 1302.241875 194.159488 
L 1712.881875 194.159488 
" clip-path="url(#pcdd1012a45)" style="fill: none; stroke-dasharray: 2.96,1.28; stroke-dashoffset: 0; stroke: #ffffff; stroke-opacity: 0.7; stroke-width: 0.8"/>
     </g>
     <g id="line2d_54"/>
    </g>
    <g id="ytick_20">
     <g id="line2d_55">
      <path d="M 1302.241875 129.634162 
L 1712.881875 129.634162 
" clip-path="url(#pcdd1012a45)" style="fill: none; stroke-dasharray: 2.96,1.28; stroke-dashoffset: 0; stroke: #ffffff; stroke-opacity: 0.7; stroke-width: 0.8"/>
     </g>
     <g id="line2d_56"/>
    </g>
   </g>
   <g id="patch_36">
    <path d="M 1320.90733 387.735464 
L 1374.2372 387.735464 
L 1374.2372 330.894029 
L 1320.90733 330.894029 
z
" clip-path="url(#pcdd1012a45)" style="fill: #4682b4"/>
   </g>
   <g id="patch_37">
    <path d="M 1534.22681 387.735464 
L 1587.55668 387.735464 
L 1587.55668 273.194946 
L 1534.22681 273.194946 
z
" clip-path="url(#pcdd1012a45)" style="fill: #4682b4"/>
   </g>
   <g id="patch_38">
    <path d="M 1374.2372 387.735464 
L 1427.56707 387.735464 
L 1427.56707 245.602303 
L 1374.2372 245.602303 
z
" clip-path="url(#pcdd1012a45)" style="fill: #2e8b57"/>
   </g>
   <g id="patch_39">
    <path d="M 1587.55668 387.735464 
L 1640.88655 387.735464 
L 1640.88655 164.268131 
L 1587.55668 164.268131 
z
" clip-path="url(#pcdd1012a45)" style="fill: #2e8b57"/>
   </g>
   <g id="patch_40">
    <path d="M 1427.56707 387.735464 
L 1480.89694 387.735464 
L 1480.89694 209.360579 
L 1427.56707 209.360579 
z
" clip-path="url(#pcdd1012a45)" style="fill: #ff6347"/>
   </g>
   <g id="patch_41">
    <path d="M 1640.88655 387.735464 
L 1694.21642 387.735464 
L 1694.21642 135.151078 
L 1640.88655 135.151078 
z
" clip-path="url(#pcdd1012a45)" style="fill: #ff6347"/>
   </g>
   <g id="patch_42">
    <path d="M 1302.241875 387.735464 
L 1302.241875 66.48 
" style="fill: none"/>
   </g>
   <g id="patch_43">
    <path d="M 1712.881875 387.735464 
L 1712.881875 66.48 
" style="fill: none"/>
   </g>
   <g id="patch_44">
    <path d="M 1302.241875 387.735464 
L 1712.881875 387.735464 
" style="fill: none"/>
   </g>
   <g id="patch_45">
    <path d="M 1302.241875 66.48 
L 1712.881875 66.48 
" style="fill: none"/>
   </g>
   <g id="text_40">
    <!-- 0.18 -->
    <g style="fill: #262626" transform="translate(1340.760936 326.441529) scale(0.07 -0.07)">
     <defs>
      <path id="LiberationSans-31" d="M 488 0 
L 488 478 
L 1609 478 
L 1609 3866 
L 616 3156 
L 616 3688 
L 1656 4403 
L 2175 4403 
L 2175 478 
L 3247 478 
L 3247 0 
L 488 0 
z
" transform="scale(0.015625)"/>
     </defs>
     <use xlink:href="#LiberationSans-30"/>
     <use xlink:href="#LiberationSans-2e" transform="translate(55.615234 0)"/>
     <use xlink:href="#LiberationSans-31" transform="translate(83.398438 0)"/>
     <use xlink:href="#LiberationSans-38" transform="translate(139.013672 0)"/>
    </g>
   </g>
   <g id="text_41">
    <!-- 0.36 -->
    <g style="fill: #262626" transform="translate(1554.080417 268.742446) scale(0.07 -0.07)">
     <use xlink:href="#LiberationSans-30"/>
     <use xlink:href="#LiberationSans-2e" transform="translate(55.615234 0)"/>
     <use xlink:href="#LiberationSans-33" transform="translate(83.398438 0)"/>
     <use xlink:href="#LiberationSans-36" transform="translate(139.013672 0)"/>
    </g>
   </g>
   <g id="text_42">
    <!-- 0.44 -->
    <g style="fill: #262626" transform="translate(1394.090807 241.149803) scale(0.07 -0.07)">
     <use xlink:href="#LiberationSans-30"/>
     <use xlink:href="#LiberationSans-2e" transform="translate(55.615234 0)"/>
     <use xlink:href="#LiberationSans-34" transform="translate(83.398438 0)"/>
     <use xlink:href="#LiberationSans-34" transform="translate(139.013672 0)"/>
    </g>
   </g>
   <g id="text_43">
    <!-- 0.69 -->
    <g style="fill: #262626" transform="translate(1607.410287 159.815631) scale(0.07 -0.07)">
     <use xlink:href="#LiberationSans-30"/>
     <use xlink:href="#LiberationSans-2e" transform="translate(55.615234 0)"/>
     <use xlink:href="#LiberationSans-36" transform="translate(83.398438 0)"/>
     <use xlink:href="#LiberationSans-39" transform="translate(139.013672 0)"/>
    </g>
   </g>
   <g id="text_44">
    <!-- 0.55 -->
    <g style="fill: #262626" transform="translate(1447.420677 204.908079) scale(0.07 -0.07)">
     <use xlink:href="#LiberationSans-30"/>
     <use xlink:href="#LiberationSans-2e" transform="translate(55.615234 0)"/>
     <use xlink:href="#LiberationSans-35" transform="translate(83.398438 0)"/>
     <use xlink:href="#LiberationSans-35" transform="translate(139.013672 0)"/>
    </g>
   </g>
   <g id="text_45">
    <!-- 0.78 -->
    <g style="fill: #262626" transform="translate(1660.740157 130.698578) scale(0.07 -0.07)">
     <use xlink:href="#LiberationSans-30"/>
     <use xlink:href="#LiberationSans-2e" transform="translate(55.615234 0)"/>
     <use xlink:href="#LiberationSans-37" transform="translate(83.398438 0)"/>
     <use xlink:href="#LiberationSans-38" transform="translate(139.013672 0)"/>
    </g>
   </g>
   <g id="text_46">
    <!-- asl2000 -->
    <g style="fill: #262626" transform="translate(1484.068438 60.48) scale(0.13 -0.13)">
     <defs>
      <path id="LiberationSans-Bold-32" d="M 222 0 
L 222 609 
Q 394 988 711 1347 
Q 1028 1706 1509 2097 
Q 1972 2472 2158 2715 
Q 2344 2959 2344 3194 
Q 2344 3769 1766 3769 
Q 1484 3769 1336 3617 
Q 1188 3466 1144 3163 
L 259 3213 
Q 334 3825 717 4147 
Q 1100 4469 1759 4469 
Q 2472 4469 2853 4144 
Q 3234 3819 3234 3231 
Q 3234 2922 3112 2672 
Q 2991 2422 2800 2211 
Q 2609 2000 2376 1815 
Q 2144 1631 1925 1456 
Q 1706 1281 1526 1103 
Q 1347 925 1259 722 
L 3303 722 
L 3303 0 
L 222 0 
z
" transform="scale(0.015625)"/>
     </defs>
     <use xlink:href="#LiberationSans-Bold-61"/>
     <use xlink:href="#LiberationSans-Bold-73" transform="translate(55.615234 0)"/>
     <use xlink:href="#LiberationSans-Bold-6c" transform="translate(111.230469 0)"/>
     <use xlink:href="#LiberationSans-Bold-32" transform="translate(139.013672 0)"/>
     <use xlink:href="#LiberationSans-Bold-30" transform="translate(194.628906 0)"/>
     <use xlink:href="#LiberationSans-Bold-30" transform="translate(250.244141 0)"/>
     <use xlink:href="#LiberationSans-Bold-30" transform="translate(305.859375 0)"/>
    </g>
   </g>
  </g>
  <g id="text_47">
   <!-- Top-K Accuracy Across Splits -->
   <g style="fill: #262626" transform="translate(753.273281 18.070312) scale(0.15 -0.15)">
    <defs>
     <path id="LiberationSans-Bold-54" d="M 2416 3691 
L 2416 0 
L 1494 0 
L 1494 3691 
L 72 3691 
L 72 4403 
L 3841 4403 
L 3841 3691 
L 2416 3691 
z
" transform="scale(0.015625)"/>
     <path id="LiberationSans-Bold-6f" d="M 3659 1694 
Q 3659 872 3203 404 
Q 2747 -63 1941 -63 
Q 1150 -63 700 406 
Q 250 875 250 1694 
Q 250 2509 700 2976 
Q 1150 3444 1959 3444 
Q 2788 3444 3223 2992 
Q 3659 2541 3659 1694 
z
M 2741 1694 
Q 2741 2297 2544 2569 
Q 2347 2841 1972 2841 
Q 1172 2841 1172 1694 
Q 1172 1128 1367 833 
Q 1563 538 1931 538 
Q 2741 538 2741 1694 
z
" transform="scale(0.015625)"/>
     <path id="LiberationSans-Bold-70" d="M 3647 1706 
Q 3647 859 3308 398 
Q 2969 -63 2350 -63 
Q 1994 -63 1730 92 
Q 1466 247 1325 538 
L 1306 538 
Q 1325 444 1325 -31 
L 1325 -1328 
L 447 -1328 
L 447 2603 
Q 447 3081 422 3381 
L 1275 3381 
Q 1291 3325 1302 3159 
Q 1313 2994 1313 2831 
L 1325 2831 
Q 1622 3453 2406 3453 
Q 2997 3453 3322 2998 
Q 3647 2544 3647 1706 
z
M 2731 1706 
Q 2731 2844 2034 2844 
Q 1684 2844 1498 2537 
Q 1313 2231 1313 1681 
Q 1313 1134 1498 836 
Q 1684 538 2028 538 
Q 2731 538 2731 1706 
z
" transform="scale(0.015625)"/>
     <path id="LiberationSans-Bold-2d" d="M 250 1278 
L 250 2041 
L 1875 2041 
L 1875 1278 
L 250 1278 
z
" transform="scale(0.015625)"/>
     <path id="LiberationSans-Bold-4b" d="M 3475 0 
L 1894 2022 
L 1350 1606 
L 1350 0 
L 428 0 
L 428 4403 
L 1350 4403 
L 1350 2406 
L 3334 4403 
L 4409 4403 
L 2528 2541 
L 4563 0 
L 3475 0 
z
" transform="scale(0.015625)"/>
     <path id="LiberationSans-Bold-20" transform="scale(0.015625)"/>
     <path id="LiberationSans-Bold-41" d="M 3541 0 
L 3150 1125 
L 1472 1125 
L 1081 0 
L 159 0 
L 1766 4403 
L 2853 4403 
L 4453 0 
L 3541 0 
z
M 2309 3725 
L 2291 3656 
Q 2259 3544 2215 3400 
Q 2172 3256 1678 1819 
L 2944 1819 
L 2509 3084 
L 2375 3509 
L 2309 3725 
z
" transform="scale(0.015625)"/>
     <path id="LiberationSans-Bold-63" d="M 1856 -63 
Q 1088 -63 669 395 
Q 250 853 250 1672 
Q 250 2509 672 2976 
Q 1094 3444 1869 3444 
Q 2466 3444 2856 3144 
Q 3247 2844 3347 2316 
L 2463 2272 
Q 2425 2531 2275 2686 
Q 2125 2841 1850 2841 
Q 1172 2841 1172 1706 
Q 1172 538 1863 538 
Q 2113 538 2281 695 
Q 2450 853 2491 1166 
L 3372 1125 
Q 3325 778 3123 506 
Q 2922 234 2594 85 
Q 2266 -63 1856 -63 
z
" transform="scale(0.015625)"/>
     <path id="LiberationSans-Bold-75" d="M 1275 3381 
L 1275 1484 
Q 1275 594 1875 594 
Q 2194 594 2389 867 
Q 2584 1141 2584 1569 
L 2584 3381 
L 3463 3381 
L 3463 756 
Q 3463 325 3488 0 
L 2650 0 
Q 2613 450 2613 672 
L 2597 672 
Q 2422 288 2151 112 
Q 1881 -63 1509 -63 
Q 972 -63 684 267 
Q 397 597 397 1234 
L 397 3381 
L 1275 3381 
z
" transform="scale(0.015625)"/>
     <path id="LiberationSans-Bold-72" d="M 447 0 
L 447 2588 
Q 447 2866 439 3052 
Q 431 3238 422 3381 
L 1259 3381 
Q 1269 3325 1284 3039 
Q 1300 2753 1300 2659 
L 1313 2659 
Q 1441 3016 1541 3161 
Q 1641 3306 1778 3376 
Q 1916 3447 2122 3447 
Q 2291 3447 2394 3400 
L 2394 2666 
Q 2181 2713 2019 2713 
Q 1691 2713 1508 2447 
Q 1325 2181 1325 1659 
L 1325 0 
L 447 0 
z
" transform="scale(0.015625)"/>
     <path id="LiberationSans-Bold-79" d="M 884 -1328 
Q 569 -1328 331 -1288 
L 331 -663 
Q 497 -688 634 -688 
Q 822 -688 945 -628 
Q 1069 -569 1167 -431 
Q 1266 -294 1388 34 
L 50 3381 
L 978 3381 
L 1509 1797 
Q 1634 1456 1825 753 
L 1903 1050 
L 2106 1784 
L 2606 3381 
L 3525 3381 
L 2188 -178 
Q 1919 -828 1630 -1078 
Q 1341 -1328 884 -1328 
z
" transform="scale(0.015625)"/>
     <path id="LiberationSans-Bold-53" d="M 4019 1269 
Q 4019 622 3539 279 
Q 3059 -63 2131 -63 
Q 1284 -63 803 237 
Q 322 538 184 1147 
L 1075 1294 
Q 1166 944 1428 786 
Q 1691 628 2156 628 
Q 3122 628 3122 1216 
Q 3122 1403 3011 1525 
Q 2900 1647 2698 1728 
Q 2497 1809 1925 1925 
Q 1431 2041 1237 2111 
Q 1044 2181 887 2276 
Q 731 2372 622 2506 
Q 513 2641 452 2822 
Q 391 3003 391 3238 
Q 391 3834 839 4151 
Q 1288 4469 2144 4469 
Q 2963 4469 3373 4212 
Q 3784 3956 3903 3366 
L 3009 3244 
Q 2941 3528 2730 3672 
Q 2519 3816 2125 3816 
Q 1288 3816 1288 3291 
Q 1288 3119 1377 3009 
Q 1466 2900 1641 2823 
Q 1816 2747 2350 2631 
Q 2984 2497 3257 2383 
Q 3531 2269 3690 2117 
Q 3850 1966 3934 1755 
Q 4019 1544 4019 1269 
z
" transform="scale(0.015625)"/>
     <path id="LiberationSans-Bold-69" d="M 447 3991 
L 447 4638 
L 1325 4638 
L 1325 3991 
L 447 3991 
z
M 447 0 
L 447 3381 
L 1325 3381 
L 1325 0 
L 447 0 
z
" transform="scale(0.015625)"/>
     <path id="LiberationSans-Bold-74" d="M 1313 -56 
Q 925 -56 715 155 
Q 506 366 506 794 
L 506 2788 
L 78 2788 
L 78 3381 
L 550 3381 
L 825 4175 
L 1375 4175 
L 1375 3381 
L 2016 3381 
L 2016 2788 
L 1375 2788 
L 1375 1031 
Q 1375 784 1469 667 
Q 1563 550 1759 550 
Q 1863 550 2053 594 
L 2053 50 
Q 1728 -56 1313 -56 
z
" transform="scale(0.015625)"/>
    </defs>
    <use xlink:href="#LiberationSans-Bold-54"/>
    <use xlink:href="#LiberationSans-Bold-6f" transform="translate(53.708984 0)"/>
    <use xlink:href="#LiberationSans-Bold-70" transform="translate(114.792969 0)"/>
    <use xlink:href="#LiberationSans-Bold-2d" transform="translate(175.876953 0)"/>
    <use xlink:href="#LiberationSans-Bold-4b" transform="translate(209.177734 0)"/>
    <use xlink:href="#LiberationSans-Bold-20" transform="translate(281.394531 0)"/>
    <use xlink:href="#LiberationSans-Bold-41" transform="translate(305.427734 0)"/>
    <use xlink:href="#LiberationSans-Bold-63" transform="translate(377.644531 0)"/>
    <use xlink:href="#LiberationSans-Bold-63" transform="translate(433.259766 0)"/>
    <use xlink:href="#LiberationSans-Bold-75" transform="translate(488.875 0)"/>
    <use xlink:href="#LiberationSans-Bold-72" transform="translate(549.958984 0)"/>
    <use xlink:href="#LiberationSans-Bold-61" transform="translate(588.875 0)"/>
    <use xlink:href="#LiberationSans-Bold-63" transform="translate(644.490234 0)"/>
    <use xlink:href="#LiberationSans-Bold-79" transform="translate(700.105469 0)"/>
    <use xlink:href="#LiberationSans-Bold-20" transform="translate(755.720703 0)"/>
    <use xlink:href="#LiberationSans-Bold-41" transform="translate(779.753906 0)"/>
    <use xlink:href="#LiberationSans-Bold-63" transform="translate(851.970703 0)"/>
    <use xlink:href="#LiberationSans-Bold-72" transform="translate(907.585938 0)"/>
    <use xlink:href="#LiberationSans-Bold-6f" transform="translate(946.501953 0)"/>
    <use xlink:href="#LiberationSans-Bold-73" transform="translate(1007.585938 0)"/>
    <use xlink:href="#LiberationSans-Bold-73" transform="translate(1063.201172 0)"/>
    <use xlink:href="#LiberationSans-Bold-20" transform="translate(1118.816406 0)"/>
    <use xlink:href="#LiberationSans-Bold-53" transform="translate(1146.599609 0)"/>
    <use xlink:href="#LiberationSans-Bold-70" transform="translate(1213.298828 0)"/>
    <use xlink:href="#LiberationSans-Bold-6c" transform="translate(1274.382812 0)"/>
    <use xlink:href="#LiberationSans-Bold-69" transform="translate(1302.166016 0)"/>
    <use xlink:href="#LiberationSans-Bold-74" transform="translate(1329.949219 0)"/>
    <use xlink:href="#LiberationSans-Bold-73" transform="translate(1363.25 0)"/>
   </g>
  </g>
  <g id="legend_1">
   <g id="patch_46">
    <path d="M 1663.86 16.246875 
L 1683.86 16.246875 
L 1683.86 9.246875 
L 1663.86 9.246875 
z
" style="fill: #4682b4"/>
   </g>
   <g id="text_48">
    <!-- top1 -->
    <g style="fill: #262626" transform="translate(1691.86 16.246875) scale(0.1 -0.1)">
     <defs>
      <path id="LiberationSans-74" d="M 1731 25 
Q 1453 -50 1163 -50 
Q 488 -50 488 716 
L 488 2972 
L 97 2972 
L 97 3381 
L 509 3381 
L 675 4138 
L 1050 4138 
L 1050 3381 
L 1675 3381 
L 1675 2972 
L 1050 2972 
L 1050 838 
Q 1050 594 1129 495 
Q 1209 397 1406 397 
Q 1519 397 1731 441 
L 1731 25 
z
" transform="scale(0.015625)"/>
      <path id="LiberationSans-70" d="M 3291 1706 
Q 3291 -63 2047 -63 
Q 1266 -63 997 525 
L 981 525 
Q 994 500 994 -6 
L 994 -1328 
L 431 -1328 
L 431 2691 
Q 431 3213 413 3381 
L 956 3381 
Q 959 3369 965 3292 
Q 972 3216 980 3056 
Q 988 2897 988 2838 
L 1000 2838 
Q 1150 3150 1397 3295 
Q 1644 3441 2047 3441 
Q 2672 3441 2981 3022 
Q 3291 2603 3291 1706 
z
M 2700 1694 
Q 2700 2400 2509 2703 
Q 2319 3006 1903 3006 
Q 1569 3006 1380 2865 
Q 1191 2725 1092 2426 
Q 994 2128 994 1650 
Q 994 984 1206 668 
Q 1419 353 1897 353 
Q 2316 353 2508 661 
Q 2700 969 2700 1694 
z
" transform="scale(0.015625)"/>
     </defs>
     <use xlink:href="#LiberationSans-74"/>
     <use xlink:href="#LiberationSans-6f" transform="translate(27.783203 0)"/>
     <use xlink:href="#LiberationSans-70" transform="translate(83.398438 0)"/>
     <use xlink:href="#LiberationSans-31" transform="translate(139.013672 0)"/>
    </g>
   </g>
   <g id="patch_47">
    <path d="M 1663.86 30.56875 
L 1683.86 30.56875 
L 1683.86 23.56875 
L 1663.86 23.56875 
z
" style="fill: #2e8b57"/>
   </g>
   <g id="text_49">
    <!-- top5 -->
    <g style="fill: #262626" transform="translate(1691.86 30.56875) scale(0.1 -0.1)">
     <use xlink:href="#LiberationSans-74"/>
     <use xlink:href="#LiberationSans-6f" transform="translate(27.783203 0)"/>
     <use xlink:href="#LiberationSans-70" transform="translate(83.398438 0)"/>
     <use xlink:href="#LiberationSans-35" transform="translate(139.013672 0)"/>
    </g>
   </g>
   <g id="patch_48">
    <path d="M 1663.86 44.890625 
L 1683.86 44.890625 
L 1683.86 37.890625 
L 1663.86 37.890625 
z
" style="fill: #ff6347"/>
   </g>
   <g id="text_50">
    <!-- top10 -->
    <g style="fill: #262626" transform="translate(1691.86 44.890625) scale(0.1 -0.1)">
     <use xlink:href="#LiberationSans-74"/>
     <use xlink:href="#LiberationSans-6f" transform="translate(27.783203 0)"/>
     <use xlink:href="#LiberationSans-70" transform="translate(83.398438 0)"/>
     <use xlink:href="#LiberationSans-31" transform="translate(139.013672 0)"/>
     <use xlink:href="#LiberationSans-30" transform="translate(194.628906 0)"/>
    </g>
   </g>
  </g>
 </g>
 <defs>
  <clipPath id="pb3ca54bbc0">
   <rect x="37.921875" y="66.48" width="410.64" height="321.255464"/>
  </clipPath>
  <clipPath id="p6580d6c413">
   <rect x="459.361875" y="66.48" width="410.64" height="321.255464"/>
  </clipPath>
  <clipPath id="p68907a3712">
   <rect x="880.801875" y="66.48" width="410.64" height="321.255464"/>
  </clipPath>
  <clipPath id="pcdd1012a45">
   <rect x="1302.241875" y="66.48" width="410.64" height="321.255464"/>
  </clipPath>
 </defs>
</svg>
